<?xml version="1.0" encoding="UTF-8"?>
<svg xmlns="http://www.w3.org/2000/svg" xmlns:xlink="http://www.w3.org/1999/xlink" width="49px" height="55px" viewBox="0 0 49 55" version="1.1">
<g id="surface1">
<path style=" stroke:none;fill-rule:evenodd;fill:rgb(95.294118%,79.607843%,0%);fill-opacity:1;" d="M 24.40625 9.804688 C 36.742188 9.804688 46.753906 17.742188 46.753906 27.53125 C 46.753906 37.316406 36.742188 45.253906 24.40625 45.253906 C 12.066406 45.253906 2.058594 37.324219 2.058594 27.53125 C 2.058594 17.742188 12.066406 9.804688 24.40625 9.804688 Z M 24.40625 9.804688 "/>
<path style=" stroke:none;fill-rule:evenodd;fill:rgb(100%,100%,100%);fill-opacity:1;" d="M 24.40625 10.234375 C 36.449219 10.234375 46.210938 17.976562 46.210938 27.53125 C 46.210938 37.082031 36.449219 44.824219 24.40625 44.824219 C 12.363281 44.824219 2.601562 37.082031 2.601562 27.53125 C 2.601562 17.976562 12.363281 10.234375 24.40625 10.234375 Z M 24.40625 10.234375 "/>
<path style=" stroke:none;fill-rule:nonzero;fill:rgb(88.627451%,0%,10.196078%);fill-opacity:1;" d="M 6.691406 28.03125 L 3.636719 27.945312 L 3.671875 27.164062 C 3.6875 26.863281 3.710938 26.675781 3.746094 26.582031 C 3.792969 26.445312 3.902344 26.328125 4.058594 26.242188 C 4.214844 26.152344 4.410156 26.113281 4.660156 26.121094 C 4.847656 26.125 5.003906 26.160156 5.128906 26.210938 C 5.25 26.269531 5.351562 26.339844 5.425781 26.425781 C 5.488281 26.511719 5.539062 26.597656 5.554688 26.679688 C 5.582031 26.796875 5.589844 26.96875 5.582031 27.191406 L 5.5625 27.511719 L 6.714844 27.542969 Z M 4.179688 27.476562 L 5.046875 27.503906 L 5.054688 27.234375 C 5.0625 27.039062 5.054688 26.914062 5.019531 26.851562 C 4.988281 26.785156 4.945312 26.734375 4.882812 26.695312 C 4.816406 26.65625 4.734375 26.636719 4.640625 26.636719 C 4.535156 26.636719 4.4375 26.65625 4.363281 26.707031 C 4.289062 26.757812 4.238281 26.816406 4.222656 26.894531 C 4.207031 26.953125 4.199219 27.074219 4.191406 27.25 Z M 6.855469 25.804688 L 3.851562 25.386719 L 4.246094 23.617188 L 4.757812 23.691406 L 4.46875 24.976562 L 5.136719 25.066406 L 5.398438 23.875 L 5.910156 23.945312 L 5.648438 25.140625 L 6.460938 25.257812 L 6.757812 23.925781 L 7.269531 23.996094 Z M 7.0625 21.777344 L 7.464844 21.390625 C 7.738281 21.5625 7.910156 21.746094 7.984375 21.949219 C 8.058594 22.148438 8.023438 22.378906 7.902344 22.613281 C 7.753906 22.914062 7.5 23.117188 7.144531 23.226562 C 6.789062 23.339844 6.386719 23.316406 5.941406 23.175781 C 5.472656 23.023438 5.152344 22.808594 4.988281 22.535156 C 4.824219 22.261719 4.824219 21.960938 4.988281 21.648438 C 5.128906 21.371094 5.34375 21.183594 5.636719 21.078125 C 5.8125 21.011719 6.023438 20.992188 6.28125 21.011719 L 6.191406 21.503906 C 6.035156 21.484375 5.886719 21.503906 5.753906 21.554688 C 5.621094 21.613281 5.53125 21.699219 5.472656 21.824219 C 5.390625 21.988281 5.390625 22.148438 5.488281 22.300781 C 5.589844 22.449219 5.804688 22.582031 6.140625 22.691406 C 6.503906 22.808594 6.78125 22.835938 6.980469 22.78125 C 7.1875 22.730469 7.324219 22.621094 7.40625 22.457031 C 7.464844 22.332031 7.472656 22.214844 7.425781 22.097656 C 7.375 21.992188 7.25 21.882812 7.0625 21.777344 Z M 5.878906 20.046875 L 7.128906 18.394531 L 9.746094 19.644531 L 9.425781 20.058594 L 7.242188 19.023438 L 6.625 19.839844 L 8.808594 20.875 L 8.484375 21.292969 Z M 7.589844 17.753906 L 8.050781 17.351562 L 9.710938 17.773438 L 8.9375 16.574219 L 9.367188 16.195312 L 10.402344 18.035156 C 10.519531 18.238281 10.578125 18.402344 10.601562 18.546875 C 10.617188 18.683594 10.570312 18.808594 10.445312 18.917969 C 10.320312 19.023438 10.222656 19.101562 10.132812 19.152344 L 9.796875 18.910156 C 9.859375 18.867188 9.910156 18.820312 9.960938 18.773438 C 10.058594 18.6875 10.109375 18.617188 10.109375 18.550781 C 10.109375 18.488281 10.066406 18.394531 9.976562 18.273438 Z M 9.859375 15.789062 L 11.582031 14.601562 L 11.917969 14.910156 L 10.660156 15.777344 L 11.121094 16.203125 L 11.746094 15.769531 C 11.917969 15.652344 12.074219 15.570312 12.230469 15.523438 C 12.378906 15.476562 12.542969 15.472656 12.726562 15.511719 C 12.90625 15.542969 13.0625 15.621094 13.195312 15.746094 C 13.328125 15.867188 13.410156 16 13.425781 16.148438 C 13.441406 16.292969 13.417969 16.417969 13.351562 16.523438 C 13.285156 16.625 13.152344 16.742188 12.964844 16.875 L 11.878906 17.625 Z M 11.992188 16.992188 L 12.445312 16.679688 C 12.59375 16.582031 12.683594 16.503906 12.734375 16.449219 C 12.78125 16.398438 12.800781 16.339844 12.800781 16.265625 C 12.800781 16.195312 12.765625 16.128906 12.699219 16.078125 C 12.609375 15.992188 12.503906 15.960938 12.378906 15.972656 C 12.265625 15.988281 12.109375 16.058594 11.925781 16.183594 L 11.449219 16.507812 Z M 12.683594 13.957031 L 14.496094 13.054688 L 16.117188 15.113281 L 15.589844 15.371094 L 14.257812 13.664062 L 13.472656 14.046875 L 14.164062 14.921875 C 14.363281 15.171875 14.496094 15.351562 14.542969 15.464844 C 14.601562 15.574219 14.609375 15.679688 14.570312 15.769531 C 14.527344 15.867188 14.421875 15.960938 14.25 16.046875 C 14.191406 16.078125 14.074219 16.125 13.902344 16.195312 L 13.664062 15.882812 L 13.777344 15.824219 C 13.886719 15.769531 13.953125 15.71875 13.96875 15.679688 C 13.984375 15.640625 13.960938 15.570312 13.886719 15.476562 L 13.605469 15.125 Z M 15.582031 12.589844 L 16.125 12.429688 L 16.855469 13.9375 L 17.285156 12.074219 L 17.863281 11.898438 L 18.957031 14.160156 L 18.421875 14.320312 L 17.707031 12.847656 L 17.269531 14.675781 L 16.691406 14.851562 Z M 18.867188 11.644531 L 19.464844 11.535156 L 19.761719 12.539062 C 19.894531 12.507812 19.976562 12.460938 20.011719 12.410156 C 20.042969 12.355469 20.085938 12.21875 20.125 12.003906 C 20.175781 11.722656 20.257812 11.546875 20.363281 11.457031 C 20.472656 11.371094 20.660156 11.304688 20.941406 11.253906 C 20.957031 11.253906 20.980469 11.246094 21.03125 11.234375 L 21.128906 11.585938 L 21.046875 11.597656 C 20.921875 11.617188 20.839844 11.652344 20.792969 11.683594 C 20.742188 11.714844 20.710938 11.761719 20.683594 11.820312 C 20.660156 11.878906 20.644531 11.992188 20.617188 12.152344 C 20.601562 12.238281 20.585938 12.316406 20.5625 12.382812 C 20.535156 12.449219 20.472656 12.511719 20.378906 12.578125 C 20.519531 12.585938 20.652344 12.625 20.765625 12.703125 C 20.882812 12.78125 21.015625 12.890625 21.171875 13.035156 L 21.761719 13.609375 L 21.054688 13.742188 L 20.519531 13.199219 C 20.511719 13.191406 20.496094 13.179688 20.472656 13.152344 C 20.460938 13.148438 20.429688 13.113281 20.363281 13.054688 C 20.257812 12.949219 20.167969 12.890625 20.109375 12.871094 C 20.050781 12.851562 19.96875 12.851562 19.871094 12.867188 L 20.175781 13.898438 L 19.574219 14.007812 Z M 24.859375 13.453125 L 24.191406 13.492188 L 23.878906 12.957031 L 22.660156 13.023438 L 22.453125 13.582031 L 21.804688 13.625 L 22.777344 11.140625 L 23.425781 11.101562 Z M 23.640625 12.558594 L 23.136719 11.683594 L 22.808594 12.605469 Z M 26.859375 11.167969 L 27.425781 11.238281 L 27.105469 12.832031 L 28.644531 11.398438 L 29.253906 11.476562 L 28.777344 13.871094 L 28.207031 13.800781 L 28.519531 12.238281 L 26.988281 13.648438 L 26.378906 13.570312 Z M 29.386719 14.015625 L 30.480469 11.757812 L 31.054688 11.933594 L 30.628906 12.820312 L 31.753906 13.167969 L 32.183594 12.277344 L 32.761719 12.453125 L 31.664062 14.714844 L 31.089844 14.539062 L 31.566406 13.550781 L 30.4375 13.207031 L 29.960938 14.191406 Z M 33.738281 12.820312 L 35.550781 13.617188 L 35.304688 13.96875 L 34.035156 13.40625 L 32.800781 15.171875 L 32.257812 14.933594 Z M 36.003906 13.8125 L 36.546875 14.152344 L 36.132812 15.492188 L 37.589844 14.796875 L 38.101562 15.113281 L 35.863281 16.058594 C 35.617188 16.164062 35.410156 16.222656 35.238281 16.246094 C 35.066406 16.273438 34.910156 16.242188 34.761719 16.148438 C 34.621094 16.058594 34.511719 15.988281 34.449219 15.921875 L 34.726562 15.632812 C 34.792969 15.679688 34.851562 15.71875 34.910156 15.757812 C 35.023438 15.828125 35.121094 15.863281 35.195312 15.863281 C 35.277344 15.863281 35.394531 15.816406 35.542969 15.738281 Z M 38.753906 15.574219 L 39.164062 15.941406 L 37.277344 17.292969 L 37.871094 17.816406 L 39.757812 16.464844 L 40.167969 16.820312 L 38.273438 18.171875 L 38.882812 18.710938 L 40.769531 17.359375 L 41.179688 17.714844 L 38.910156 19.34375 L 36.472656 17.195312 Z M 39.171875 19.792969 L 41.789062 18.546875 L 42.957031 20.085938 L 42.515625 20.296875 L 41.667969 19.171875 L 41.082031 19.445312 L 41.871094 20.492188 L 41.425781 20.699219 L 40.636719 19.65625 L 39.921875 19.996094 L 40.800781 21.15625 L 40.355469 21.367188 Z M 40.828125 22.28125 L 43.179688 21.53125 L 42.84375 20.863281 L 43.320312 20.707031 L 44.226562 22.488281 L 43.75 22.644531 L 43.410156 21.980469 L 41.058594 22.730469 Z M 44.390625 23.136719 L 44.53125 23.578125 L 42.554688 23.972656 L 44.828125 24.53125 L 44.976562 25.003906 L 42.011719 25.589844 L 41.871094 25.144531 L 43.804688 24.761719 L 41.574219 24.191406 L 41.425781 23.714844 Z M 42.101562 27.535156 L 43.378906 27.503906 L 43.371094 27.40625 C 43.363281 27.25 43.328125 27.144531 43.269531 27.078125 C 43.214844 27.019531 43.03125 26.914062 42.734375 26.773438 L 42.054688 26.4375 L 42.027344 25.851562 L 42.636719 26.132812 C 42.875 26.242188 43.050781 26.328125 43.148438 26.398438 C 43.246094 26.464844 43.335938 26.550781 43.410156 26.65625 C 43.445312 26.425781 43.535156 26.261719 43.683594 26.160156 C 43.832031 26.054688 44.011719 26 44.226562 25.996094 C 44.414062 25.988281 44.578125 26.019531 44.726562 26.09375 C 44.875 26.164062 44.976562 26.257812 45.03125 26.378906 C 45.089844 26.496094 45.125 26.679688 45.132812 26.921875 L 45.179688 27.953125 L 42.128906 28.039062 Z M 44.644531 27.46875 L 44.628906 27.09375 C 44.621094 26.894531 44.613281 26.773438 44.597656 26.714844 C 44.578125 26.65625 44.546875 26.601562 44.480469 26.554688 C 44.414062 26.515625 44.332031 26.496094 44.226562 26.496094 C 44.117188 26.496094 44.035156 26.523438 43.972656 26.570312 C 43.914062 26.617188 43.871094 26.667969 43.863281 26.734375 C 43.847656 26.796875 43.847656 26.933594 43.855469 27.132812 L 43.871094 27.488281 Z M 44.644531 27.46875 "/>
<path style=" stroke:none;fill-rule:nonzero;fill:rgb(88.627451%,0%,10.196078%);fill-opacity:1;" d="M 10.132812 36.265625 L 11.433594 37.539062 L 11.039062 37.792969 L 10.125 36.90625 L 8.148438 38.171875 L 7.761719 37.792969 Z M 9.671875 39.46875 L 11.828125 37.761719 L 12.265625 38.105469 L 10.109375 39.816406 Z M 13.152344 41.683594 L 12.609375 41.371094 L 12.800781 40.800781 L 11.8125 40.234375 L 11.203125 40.5625 L 10.675781 40.253906 L 13.433594 38.851562 L 13.960938 39.15625 Z M 12.9375 40.378906 L 13.269531 39.457031 L 12.265625 39.992188 Z M 15.507812 39.972656 L 17.402344 40.769531 L 15.96875 42.910156 L 15.425781 42.683594 L 16.617188 40.90625 L 15.804688 40.5625 L 15.195312 41.476562 C 15.023438 41.734375 14.882812 41.914062 14.792969 42.011719 C 14.699219 42.101562 14.59375 42.160156 14.46875 42.1875 C 14.347656 42.207031 14.191406 42.179688 14.007812 42.101562 C 13.945312 42.074219 13.835938 42.023438 13.671875 41.9375 L 13.894531 41.605469 L 14.019531 41.65625 C 14.132812 41.703125 14.214844 41.730469 14.273438 41.714844 C 14.332031 41.710938 14.386719 41.65625 14.453125 41.558594 L 14.699219 41.195312 Z M 18.066406 40.933594 L 20.027344 41.46875 L 19.863281 41.851562 L 18.488281 41.480469 L 17.65625 43.386719 L 17.070312 43.230469 Z M 19.8125 43.863281 L 20.496094 41.5 L 21.097656 41.613281 L 20.414062 43.976562 Z M 24.199219 44.335938 L 23.53125 44.277344 L 23.34375 43.707031 L 22.125 43.601562 L 21.804688 44.132812 L 21.152344 44.078125 L 22.660156 41.769531 L 23.3125 41.820312 Z M 23.195312 43.289062 L 22.898438 42.363281 L 22.371094 43.222656 Z M 24.71875 41.878906 L 25.292969 41.832031 L 25.507812 43.441406 L 26.527344 41.734375 L 27.136719 41.683594 L 27.460938 44.09375 L 26.882812 44.136719 L 26.675781 42.566406 L 25.65625 44.242188 L 25.039062 44.296875 Z M 26.214844 41.148438 L 26.496094 41.121094 C 26.496094 41.273438 26.445312 41.398438 26.347656 41.488281 C 26.242188 41.585938 26.101562 41.636719 25.910156 41.652344 C 25.730469 41.664062 25.574219 41.636719 25.441406 41.558594 C 25.320312 41.480469 25.238281 41.371094 25.195312 41.226562 L 25.484375 41.199219 C 25.5 41.277344 25.550781 41.332031 25.605469 41.371094 C 25.671875 41.402344 25.761719 41.417969 25.871094 41.410156 C 25.984375 41.402344 26.066406 41.371094 26.117188 41.324219 C 26.191406 41.292969 26.214844 41.226562 26.214844 41.148438 Z M 30.53125 43.589844 L 29.433594 41.332031 L 30.300781 41.070312 L 31.566406 42.453125 L 31.328125 40.757812 L 32.191406 40.496094 L 33.285156 42.753906 L 32.75 42.917969 L 31.886719 41.136719 L 32.183594 43.085938 L 31.632812 43.257812 L 30.207031 41.652344 L 31.074219 43.433594 Z M 33.34375 41.398438 C 33.179688 41.1875 33.082031 40.992188 33.046875 40.808594 C 33.023438 40.679688 33.03125 40.542969 33.066406 40.410156 C 33.097656 40.28125 33.164062 40.164062 33.253906 40.058594 C 33.367188 39.921875 33.535156 39.804688 33.746094 39.699219 C 34.125 39.507812 34.503906 39.449219 34.882812 39.527344 C 35.261719 39.601562 35.582031 39.808594 35.847656 40.144531 C 36.109375 40.476562 36.199219 40.789062 36.117188 41.089844 C 36.035156 41.390625 35.804688 41.632812 35.425781 41.820312 C 35.039062 42.011719 34.660156 42.070312 34.289062 41.996094 C 33.921875 41.925781 33.609375 41.722656 33.34375 41.398438 Z M 33.878906 41.117188 C 34.058594 41.351562 34.265625 41.488281 34.496094 41.546875 C 34.726562 41.597656 34.949219 41.574219 35.15625 41.46875 C 35.359375 41.363281 35.484375 41.21875 35.527344 41.039062 C 35.566406 40.855469 35.492188 40.640625 35.304688 40.402344 C 35.113281 40.167969 34.917969 40.027344 34.695312 39.972656 C 34.472656 39.921875 34.257812 39.945312 34.035156 40.058594 C 33.820312 40.164062 33.691406 40.3125 33.648438 40.496094 C 33.617188 40.671875 33.691406 40.878906 33.878906 41.117188 Z M 37.082031 40.933594 L 36.824219 39.4375 L 35.15625 39.050781 L 35.699219 38.679688 L 36.800781 38.949219 L 36.613281 38.046875 L 37.15625 37.675781 L 37.410156 39.058594 L 39.230469 39.457031 L 38.667969 39.84375 L 37.46875 39.5625 L 37.648438 40.546875 Z M 37.460938 37.394531 L 37.863281 37.023438 L 38.84375 37.703125 C 38.925781 37.609375 38.957031 37.539062 38.949219 37.480469 C 38.941406 37.421875 38.867188 37.289062 38.734375 37.101562 C 38.570312 36.851562 38.496094 36.667969 38.523438 36.550781 C 38.546875 36.433594 38.652344 36.289062 38.835938 36.121094 C 38.84375 36.113281 38.859375 36.09375 38.890625 36.070312 L 39.238281 36.304688 L 39.179688 36.355469 C 39.097656 36.433594 39.046875 36.492188 39.03125 36.546875 C 39.015625 36.597656 39.023438 36.648438 39.046875 36.703125 C 39.074219 36.753906 39.140625 36.859375 39.238281 37.003906 C 39.296875 37.082031 39.335938 37.152344 39.363281 37.210938 C 39.386719 37.277344 39.386719 37.355469 39.363281 37.453125 C 39.484375 37.394531 39.617188 37.363281 39.765625 37.375 C 39.914062 37.382812 40.101562 37.414062 40.332031 37.460938 L 41.238281 37.648438 L 40.761719 38.078125 L 39.929688 37.890625 C 39.921875 37.890625 39.894531 37.882812 39.855469 37.878906 C 39.839844 37.878906 39.789062 37.863281 39.699219 37.851562 C 39.535156 37.820312 39.417969 37.8125 39.363281 37.820312 C 39.304688 37.832031 39.238281 37.863281 39.164062 37.929688 L 40.175781 38.628906 L 39.773438 39 Z M 37.460938 37.394531 "/>
<path style=" stroke:none;fill-rule:nonzero;fill:rgb(0%,0%,0%);fill-opacity:1;" d="M 24.683594 36.410156 C 25.375 36.453125 26.003906 36.695312 26.464844 37.0625 C 26.980469 37.472656 27.300781 38.039062 27.300781 38.667969 C 27.300781 39.292969 26.980469 39.863281 26.464844 40.273438 C 25.945312 40.683594 25.226562 40.941406 24.4375 40.941406 C 23.648438 40.941406 22.933594 40.683594 22.414062 40.273438 C 21.894531 39.863281 21.574219 39.292969 21.574219 38.667969 C 21.574219 38.039062 21.894531 37.472656 22.414062 37.0625 C 22.859375 36.707031 23.457031 36.46875 24.125 36.410156 L 24.125 36.015625 C 23.707031 36.34375 23.367188 36.460938 23.121094 36.375 C 23.070312 36.355469 23.089844 36.191406 23.089844 36.199219 C 22.601562 36.546875 22.726562 36.132812 22.824219 35.894531 C 22.5625 36.003906 22.289062 36.09375 22 36.160156 C 21.929688 35.917969 22.207031 35.78125 22.332031 35.597656 C 22.167969 35.605469 22 35.652344 21.835938 35.691406 C 21.894531 35.578125 21.953125 35.480469 22.058594 35.398438 C 21.902344 35.421875 21.746094 35.457031 21.597656 35.476562 C 21.632812 35.351562 21.664062 35.199219 21.738281 35.082031 C 21.359375 35.101562 20.898438 35.199219 20.703125 35.480469 C 20.734375 35.535156 20.757812 35.59375 20.777344 35.652344 C 21.433594 35.558594 21.574219 36.160156 21.015625 36.375 C 20.757812 36.527344 20.453125 36.558594 20.183594 36.402344 C 20.050781 36.332031 19.878906 36.246094 19.746094 36.132812 C 19.476562 35.984375 19.566406 35.839844 19.722656 35.691406 C 19.5 35.671875 19.671875 35.664062 19.476562 35.722656 C 19.566406 35.878906 19.433594 36.035156 19.558594 36.210938 C 19.136719 36.140625 18.875 35.933594 18.824219 35.578125 C 18.792969 35.285156 19.234375 35.429688 18.957031 35.121094 C 18.757812 34.90625 18.40625 34.820312 18.101562 34.757812 C 18.601562 34.324219 19.550781 34.449219 20.214844 34.496094 C 20.453125 34.507812 20.710938 34.527344 20.980469 34.554688 C 21.320312 34.554688 21.253906 34.839844 21.613281 34.683594 C 21.613281 34.683594 22.324219 34.214844 22.332031 34.207031 C 22.355469 34.105469 22.371094 33.964844 22.289062 33.875 C 22.101562 33.921875 22.148438 33.867188 22.140625 33.75 C 22.117188 33.449219 22.058594 33.609375 21.761719 33.515625 C 21.730469 33.417969 21.457031 33.214844 21.457031 33.308594 C 21.433594 33.378906 21.410156 33.449219 21.375 33.515625 C 21.277344 33.367188 21.144531 33.253906 20.972656 33.144531 C 20.964844 33.230469 20.90625 33.289062 20.824219 33.339844 C 20.71875 33.183594 20.628906 33.203125 20.445312 33.203125 C 19.796875 33.203125 19.402344 32.738281 18.816406 33.289062 C 18.601562 32.71875 18.890625 32.296875 19.695312 32.320312 C 19.863281 32.085938 20.191406 31.980469 20.511719 31.980469 C 20.511719 31.976562 20.988281 31.976562 21.613281 31.980469 C 21.597656 31.957031 21.574219 31.929688 21.558594 31.902344 C 21.53125 31.871094 21.5 31.839844 21.46875 31.8125 C 21.292969 31.667969 21.046875 31.601562 20.734375 31.609375 L 16.042969 31.609375 L 15.851562 31.617188 C 14.378906 31.640625 13.953125 31.648438 13.410156 31.179688 C 13.121094 31.183594 12.847656 31.179688 12.585938 31.164062 C 12.320312 31.152344 12.074219 31.132812 11.84375 31.101562 C 10.667969 30.9375 9.910156 30.519531 9.574219 29.855469 C 9.480469 29.828125 9.398438 29.808594 9.324219 29.78125 C 9.242188 29.753906 9.167969 29.722656 9.105469 29.695312 C 8.75 29.539062 8.558594 29.332031 8.527344 29.078125 C 8.445312 29.039062 8.378906 28.992188 8.3125 28.953125 C 8.132812 28.835938 8.007812 28.722656 7.960938 28.621094 C 7.902344 28.507812 7.910156 28.402344 7.992188 28.3125 L 8 28.304688 C 7.664062 27.96875 7.628906 27.738281 7.902344 27.621094 C 7.605469 27.328125 7.554688 27.105469 7.761719 26.960938 C 7.746094 26.949219 7.738281 26.929688 7.722656 26.910156 C 7.703125 26.882812 7.6875 26.855469 7.671875 26.835938 C 7.515625 26.589844 7.5625 26.328125 7.605469 26.058594 C 7.636719 25.785156 7.695312 25.492188 7.769531 25.171875 C 7.878906 24.714844 8.023438 24.21875 8.222656 23.675781 L 8.273438 23.539062 L 8.304688 23.683594 C 8.339844 23.820312 8.371094 23.957031 8.402344 24.089844 C 8.445312 24.21875 8.484375 24.34375 8.527344 24.46875 C 8.757812 25.085938 9.078125 25.601562 9.5 26.015625 C 9.53125 25.988281 9.566406 25.96875 9.613281 25.957031 C 9.703125 25.921875 9.828125 25.902344 9.976562 25.898438 C 9.984375 25.898438 9.992188 25.890625 10.007812 25.890625 C 10.015625 25.890625 10.027344 25.882812 10.042969 25.882812 C 10.082031 25.871094 10.117188 25.851562 10.125 25.839844 C 10.171875 25.78125 10.3125 25.753906 10.550781 25.753906 C 10.5625 25.753906 10.578125 25.746094 10.585938 25.742188 C 10.601562 25.734375 10.609375 25.726562 10.625 25.722656 C 10.699219 25.675781 10.765625 25.597656 10.839844 25.480469 C 10.847656 25.464844 10.855469 25.453125 10.863281 25.445312 C 10.875 25.433594 10.882812 25.425781 10.890625 25.421875 C 10.9375 25.375 11.003906 25.355469 11.085938 25.363281 C 11.09375 25.363281 11.105469 25.355469 11.113281 25.355469 C 11.121094 25.347656 11.136719 25.34375 11.144531 25.335938 C 11.203125 25.296875 11.253906 25.238281 11.300781 25.140625 C 11.308594 25.121094 11.316406 25.101562 11.324219 25.082031 C 11.335938 25.0625 11.351562 25.046875 11.367188 25.027344 C 11.441406 24.949219 11.566406 24.898438 11.746094 24.886719 L 19.0625 24.332031 C 19.21875 24.3125 19.351562 24.316406 19.457031 24.34375 C 19.566406 24.371094 19.640625 24.414062 19.695312 24.488281 C 19.707031 24.492188 19.714844 24.5 19.722656 24.507812 C 19.730469 24.511719 19.738281 24.527344 19.753906 24.53125 C 19.804688 24.578125 19.863281 24.628906 19.917969 24.695312 C 19.925781 24.703125 19.925781 24.714844 19.9375 24.722656 C 19.945312 24.730469 19.945312 24.742188 19.945312 24.753906 C 19.960938 24.808594 19.96875 24.886719 19.960938 24.984375 L 19.960938 24.988281 C 19.960938 25.015625 19.953125 25.035156 19.953125 25.054688 C 19.953125 25.074219 19.953125 25.09375 19.945312 25.113281 C 19.9375 25.1875 19.9375 25.230469 19.9375 25.265625 C 19.945312 25.265625 19.953125 25.257812 19.960938 25.25 C 19.984375 25.238281 20.011719 25.207031 20.035156 25.164062 C 20.042969 25.152344 20.058594 25.132812 20.066406 25.113281 C 20.140625 24.996094 20.222656 24.910156 20.324219 24.859375 C 20.421875 24.808594 20.535156 24.789062 20.667969 24.800781 C 20.683594 24.800781 20.703125 24.808594 20.71875 24.808594 C 20.734375 24.808594 20.75 24.808594 20.765625 24.8125 C 20.859375 24.820312 20.957031 24.820312 21.0625 24.820312 L 21.070312 24.820312 C 21.105469 24.820312 21.136719 24.828125 21.171875 24.832031 C 21.203125 24.839844 21.226562 24.851562 21.261719 24.867188 C 21.410156 24.929688 21.53125 25.074219 21.648438 25.296875 L 21.65625 25.304688 C 21.671875 25.328125 21.6875 25.363281 21.699219 25.386719 C 21.714844 25.421875 21.722656 25.445312 21.730469 25.480469 C 21.789062 25.636719 21.8125 25.824219 21.8125 26.035156 C 21.804688 26.105469 21.804688 26.171875 21.8125 26.238281 C 21.820312 26.300781 21.828125 26.359375 21.84375 26.417969 C 21.917969 26.695312 22.183594 26.933594 22.503906 27.09375 L 22.496094 27.144531 C 22.148438 26.972656 21.863281 26.71875 21.789062 26.425781 C 21.769531 26.367188 21.761719 26.300781 21.753906 26.238281 C 21.746094 26.171875 21.746094 26.097656 21.753906 26.027344 C 21.753906 25.820312 21.730469 25.640625 21.679688 25.484375 C 21.671875 25.453125 21.65625 25.425781 21.648438 25.394531 C 21.632812 25.367188 21.625 25.335938 21.605469 25.308594 L 21.597656 25.304688 C 21.492188 25.085938 21.375 24.957031 21.238281 24.890625 C 21.210938 24.878906 21.1875 24.871094 21.164062 24.867188 C 21.136719 24.859375 21.113281 24.859375 21.078125 24.859375 L 21.070312 24.859375 C 20.964844 24.859375 20.859375 24.859375 20.765625 24.851562 C 20.75 24.851562 20.734375 24.851562 20.71875 24.847656 C 20.703125 24.847656 20.683594 24.847656 20.667969 24.839844 C 20.554688 24.828125 20.453125 24.839844 20.363281 24.890625 C 20.273438 24.9375 20.191406 25.015625 20.125 25.125 C 20.117188 25.144531 20.101562 25.160156 20.09375 25.179688 C 20.058594 25.226562 20.027344 25.257812 20 25.277344 C 19.96875 25.304688 19.9375 25.308594 19.902344 25.296875 L 19.886719 25.289062 L 19.886719 25.277344 C 19.886719 25.25 19.886719 25.191406 19.894531 25.101562 C 19.894531 25.082031 19.894531 25.0625 19.902344 25.042969 C 19.902344 25.023438 19.910156 24.996094 19.910156 24.976562 L 19.910156 24.96875 C 19.917969 24.878906 19.910156 24.808594 19.894531 24.753906 C 19.894531 24.75 19.886719 24.734375 19.886719 24.730469 C 19.886719 24.722656 19.878906 24.714844 19.878906 24.707031 C 19.820312 24.644531 19.769531 24.589844 19.722656 24.550781 C 19.714844 24.546875 19.707031 24.53125 19.695312 24.527344 C 19.6875 24.519531 19.679688 24.511719 19.671875 24.507812 C 19.632812 24.449219 19.558594 24.402344 19.464844 24.382812 C 19.367188 24.355469 19.253906 24.355469 19.105469 24.371094 L 11.785156 24.925781 C 11.621094 24.9375 11.507812 24.984375 11.449219 25.046875 C 11.441406 25.0625 11.425781 25.074219 11.417969 25.09375 C 11.410156 25.105469 11.398438 25.125 11.390625 25.144531 C 11.34375 25.25 11.285156 25.316406 11.21875 25.363281 C 11.203125 25.367188 11.195312 25.375 11.179688 25.382812 C 11.160156 25.386719 11.152344 25.394531 11.136719 25.394531 L 11.121094 25.394531 C 11.0625 25.386719 11.003906 25.402344 10.972656 25.433594 C 10.964844 25.441406 10.957031 25.445312 10.949219 25.460938 C 10.9375 25.464844 10.929688 25.480469 10.929688 25.484375 C 10.847656 25.609375 10.773438 25.695312 10.699219 25.742188 C 10.683594 25.753906 10.667969 25.761719 10.652344 25.765625 C 10.632812 25.773438 10.617188 25.78125 10.601562 25.785156 L 10.585938 25.785156 C 10.363281 25.785156 10.238281 25.804688 10.199219 25.851562 C 10.183594 25.878906 10.140625 25.898438 10.089844 25.917969 C 10.082031 25.921875 10.066406 25.921875 10.058594 25.929688 C 10.050781 25.929688 10.035156 25.9375 10.027344 25.941406 C 9.878906 25.949219 9.761719 25.96875 9.679688 26 C 9.636719 26.015625 9.605469 26.035156 9.582031 26.054688 C 9.976562 26.425781 10.519531 26.699219 11.1875 26.910156 C 11.859375 27.125 12.667969 27.273438 13.574219 27.398438 C 16.378906 27.789062 18.4375 28.320312 19.96875 29.0625 C 21.492188 29.800781 22.496094 30.753906 23.195312 32 C 23.84375 32 24.421875 32.007812 24.609375 32 C 24.890625 32 25.1875 31.96875 25.367188 31.785156 C 25.507812 31.871094 25.523438 31.96875 25.484375 32.117188 C 25.507812 32.117188 25.542969 32.125 25.566406 32.125 L 25.679688 32.027344 C 26.378906 30.769531 27.386719 29.808594 28.925781 29.0625 C 30.457031 28.320312 32.511719 27.796875 35.320312 27.398438 C 36.226562 27.273438 37.03125 27.125 37.707031 26.910156 C 38.382812 26.695312 38.933594 26.417969 39.328125 26.035156 C 39.425781 25.9375 39.527344 25.832031 39.617188 25.722656 C 39.023438 25.683594 38.125 25.355469 37.453125 25.027344 C 37.277344 24.945312 37.121094 24.867188 36.984375 24.789062 C 36.84375 24.707031 36.726562 24.636719 36.644531 24.570312 C 36.175781 24.21875 35.757812 24.011719 35.410156 23.925781 C 35.34375 23.914062 35.277344 23.898438 35.222656 23.894531 C 35.164062 23.886719 35.105469 23.886719 35.046875 23.886719 C 34.867188 23.886719 34.6875 23.914062 34.519531 23.953125 C 34.355469 23.992188 34.199219 24.050781 34.058594 24.132812 C 33.796875 24.25 33.566406 24.292969 33.367188 24.246094 C 33.328125 24.238281 33.285156 24.226562 33.253906 24.207031 C 33.210938 24.191406 33.179688 24.171875 33.148438 24.148438 L 33.128906 24.140625 C 32.808594 23.957031 32.183594 23.46875 31.894531 23.371094 C 31.855469 23.359375 31.804688 23.34375 31.765625 23.339844 C 31.722656 23.332031 31.683594 23.324219 31.640625 23.316406 C 31.46875 23.3125 31.3125 23.304688 31.179688 23.296875 C 31.046875 23.292969 30.941406 23.292969 30.851562 23.285156 C 30.601562 23.277344 30.40625 23.277344 30.25 23.285156 C 30.101562 23.292969 30.003906 23.304688 29.953125 23.324219 C 29.402344 23.429688 28.988281 23.652344 28.734375 24.003906 C 28.683594 24.070312 28.644531 24.148438 28.601562 24.226562 C 28.5625 24.304688 28.527344 24.390625 28.503906 24.472656 C 28.4375 24.707031 28.332031 24.917969 28.175781 25.105469 C 28.027344 25.296875 27.835938 25.464844 27.597656 25.609375 C 27.285156 25.765625 27.015625 25.9375 26.777344 26.132812 C 26.726562 26.171875 26.628906 26.257812 26.585938 26.296875 C 26.546875 26.335938 26.503906 26.375 26.464844 26.414062 C 26.453125 26.417969 26.445312 26.425781 26.429688 26.417969 L 26.421875 26.375 C 26.464844 26.328125 26.554688 26.25 26.59375 26.210938 C 26.636719 26.171875 26.683594 26.132812 26.726562 26.09375 C 26.964844 25.898438 27.246094 25.722656 27.558594 25.5625 C 27.789062 25.421875 27.96875 25.257812 28.117188 25.074219 C 28.265625 24.890625 28.371094 24.683594 28.4375 24.453125 C 28.464844 24.363281 28.503906 24.277344 28.539062 24.199219 C 28.578125 24.121094 28.621094 24.042969 28.675781 23.972656 C 28.941406 23.605469 29.359375 23.378906 29.929688 23.265625 C 29.984375 23.246094 30.09375 23.234375 30.25 23.226562 C 30.398438 23.21875 30.601562 23.21875 30.851562 23.226562 C 30.941406 23.226562 31.046875 23.234375 31.179688 23.238281 C 31.3125 23.246094 31.46875 23.253906 31.640625 23.257812 C 31.683594 23.265625 31.730469 23.273438 31.773438 23.277344 C 31.8125 23.285156 31.863281 23.296875 31.914062 23.316406 C 32.332031 23.457031 32.769531 23.859375 33.164062 24.09375 L 33.179688 24.101562 C 33.210938 24.121094 33.246094 24.140625 33.277344 24.152344 C 33.3125 24.167969 33.34375 24.179688 33.386719 24.1875 C 33.574219 24.230469 33.789062 24.191406 34.035156 24.082031 C 34.183594 23.996094 34.347656 23.9375 34.511719 23.898438 C 34.6875 23.859375 34.867188 23.835938 35.054688 23.835938 C 35.113281 23.835938 35.179688 23.835938 35.238281 23.839844 C 35.304688 23.847656 35.371094 23.859375 35.433594 23.875 C 35.789062 23.957031 36.21875 24.167969 36.695312 24.527344 C 36.777344 24.589844 36.890625 24.664062 37.023438 24.734375 C 37.164062 24.8125 37.320312 24.898438 37.484375 24.976562 C 38.175781 25.308594 39.082031 25.640625 39.65625 25.667969 C 39.9375 25.324219 40.160156 24.917969 40.332031 24.453125 C 40.375 24.332031 40.414062 24.207031 40.457031 24.074219 C 40.496094 23.945312 40.53125 23.808594 40.554688 23.671875 L 40.585938 23.527344 L 40.636719 23.664062 C 40.828125 24.207031 40.976562 24.703125 41.089844 25.160156 C 41.164062 25.472656 41.222656 25.765625 41.253906 26.046875 C 41.289062 26.316406 41.34375 26.570312 41.1875 26.824219 C 41.171875 26.851562 41.15625 26.875 41.140625 26.894531 C 41.121094 26.914062 41.113281 26.929688 41.097656 26.949219 C 41.304688 27.09375 41.253906 27.3125 40.957031 27.609375 C 41.230469 27.726562 41.195312 27.953125 40.859375 28.292969 L 40.867188 28.300781 C 40.949219 28.398438 40.957031 28.496094 40.902344 28.605469 C 40.84375 28.710938 40.726562 28.820312 40.546875 28.941406 C 40.480469 28.980469 40.414062 29.023438 40.332031 29.0625 C 40.300781 29.316406 40.109375 29.519531 39.757812 29.683594 C 39.691406 29.714844 39.609375 29.742188 39.535156 29.769531 C 39.460938 29.792969 39.378906 29.820312 39.289062 29.839844 C 38.957031 30.507812 38.199219 30.925781 37.015625 31.085938 C 36.785156 31.121094 36.539062 31.140625 36.273438 31.152344 C 36.019531 31.164062 35.746094 31.171875 35.453125 31.164062 C 34.910156 31.636719 34.480469 31.628906 33.007812 31.601562 L 32.816406 31.597656 L 28.125 31.597656 C 27.8125 31.589844 27.566406 31.65625 27.394531 31.800781 C 27.359375 31.824219 27.328125 31.859375 27.300781 31.890625 C 27.046875 32.191406 26.667969 32.425781 26.324219 32.675781 C 26.480469 32.855469 26.5625 33.066406 26.527344 33.289062 C 26.851562 33.464844 26.71875 33.621094 26.621094 33.835938 C 26.472656 33.972656 27.460938 34.875 27.597656 34.664062 C 27.65625 34.574219 27.78125 34.542969 27.910156 34.542969 C 28.628906 34.476562 30.226562 34.261719 30.785156 34.742188 C 30.40625 34.820312 29.929688 34.945312 29.828125 35.285156 C 29.96875 35.402344 30.140625 35.421875 30.027344 35.652344 C 29.945312 35.972656 29.714844 36.148438 29.335938 36.210938 C 29.433594 36.070312 29.359375 35.914062 29.394531 35.753906 C 29.425781 35.59375 29.285156 35.652344 29.171875 35.664062 C 29.179688 35.671875 29.269531 35.773438 29.269531 35.773438 C 29.476562 36.042969 28.898438 36.304688 28.71875 36.402344 C 28.445312 36.558594 28.132812 36.5 27.878906 36.351562 C 27.359375 36.148438 27.425781 35.578125 28.042969 35.617188 C 28.175781 35.625 28.125 35.554688 28.191406 35.457031 C 27.992188 35.175781 27.53125 35.097656 27.164062 35.070312 C 27.238281 35.1875 27.261719 35.316406 27.292969 35.441406 C 27.136719 35.421875 26.988281 35.402344 26.832031 35.378906 C 26.933594 35.460938 27 35.558594 27.054688 35.671875 C 26.898438 35.632812 26.734375 35.585938 26.5625 35.578125 C 26.683594 35.769531 26.964844 35.886719 26.890625 36.140625 C 26.601562 36.074219 26.332031 35.984375 26.066406 35.875 C 26.117188 35.996094 26.214844 36.1875 26.125 36.3125 C 26.003906 36.285156 25.886719 36.246094 25.789062 36.167969 C 25.789062 36.226562 25.789062 36.285156 25.789062 36.351562 C 25.410156 36.472656 24.996094 36.179688 24.757812 35.996094 C 24.710938 36.171875 24.703125 36.296875 24.683594 36.410156 Z M 20.386719 35.9375 C 20.296875 36.140625 20.101562 36.109375 20.191406 36.335938 C 20.332031 36.304688 20.472656 36.160156 20.601562 36.152344 C 20.585938 36.089844 20.59375 36.023438 20.617188 35.964844 C 20.535156 35.976562 20.453125 35.964844 20.386719 35.9375 Z M 28.472656 35.953125 C 28.398438 35.976562 28.296875 35.957031 28.214844 35.945312 C 28.242188 36.003906 28.25 36.074219 28.234375 36.132812 C 28.398438 36.140625 28.675781 36.511719 28.710938 36.226562 C 28.710938 36.171875 28.503906 36.035156 28.472656 35.953125 Z M 28.472656 35.953125 "/>
<path style=" stroke:none;fill-rule:evenodd;fill:rgb(98.039216%,83.529412%,0%);fill-opacity:1;" d="M 9.769531 26.335938 C 10.222656 27.039062 12.050781 27.765625 15.234375 28.507812 C 18.71875 29.234375 21.03125 30.296875 22.175781 31.6875 C 22.808594 31.753906 22.546875 31.207031 21.367188 30.03125 C 20.933594 29.691406 20.445312 29.390625 19.878906 29.117188 C 18.355469 28.378906 16.304688 27.855469 13.507812 27.464844 C 12.59375 27.332031 11.785156 27.183594 11.105469 26.96875 C 10.585938 26.796875 10.132812 26.597656 9.769531 26.335938 Z M 8.132812 26.96875 C 7.992188 26.851562 7.941406 26.746094 7.984375 26.660156 C 8.042969 26.550781 8.214844 26.71875 8.601562 26.8125 C 8.800781 26.863281 9.105469 26.882812 9.210938 27.007812 C 9.242188 27.039062 9.25 27.078125 9.242188 27.125 C 9.203125 27.328125 8.988281 27.273438 8.78125 27.242188 C 8.535156 27.203125 8.304688 27.113281 8.132812 26.96875 Z M 8.132812 27.308594 C 8.15625 27.410156 8.328125 27.574219 8.617188 27.667969 L 9.472656 27.667969 C 9.53125 27.554688 9.53125 27.46875 9.480469 27.40625 C 9.433594 27.339844 9.292969 27.339844 9.160156 27.328125 C 9.011719 27.3125 8.875 27.300781 8.765625 27.289062 C 8.707031 27.28125 8.59375 27.253906 8.496094 27.230469 C 8.289062 27.175781 8.082031 27.117188 8.132812 27.308594 Z M 8 26.457031 C 7.820312 26.257812 7.804688 26.132812 7.933594 26.085938 C 7.992188 26.066406 8.132812 26.152344 8.265625 26.21875 C 8.394531 26.28125 8.527344 26.335938 8.585938 26.375 C 8.652344 26.398438 8.914062 26.542969 8.972656 26.679688 C 9.054688 26.890625 8.898438 26.824219 8.757812 26.796875 C 8.707031 26.785156 8.660156 26.777344 8.617188 26.765625 C 8.386719 26.699219 8.132812 26.609375 8 26.457031 Z M 7.96875 25.929688 C 7.851562 25.746094 7.84375 25.582031 8.164062 25.675781 C 8.726562 25.878906 8.402344 26.074219 8.601562 26.316406 C 8.394531 26.210938 8.074219 26.113281 7.96875 25.929688 Z M 8.089844 25.1875 L 8.246094 25.257812 C 8.46875 25.355469 9.367188 25.785156 8.683594 25.902344 C 8.550781 25.78125 8.378906 25.695312 8.183594 25.636719 C 7.976562 25.578125 7.753906 25.179688 8.089844 25.1875 Z M 8.148438 25.152344 C 8.082031 24.984375 8.117188 24.839844 8.253906 24.703125 C 8.296875 24.636719 8.347656 24.714844 8.402344 24.925781 C 8.421875 24.984375 8.46875 25.0625 8.558594 25.164062 C 8.644531 25.269531 8.644531 25.335938 8.585938 25.347656 C 8.484375 25.304688 8.378906 25.257812 8.28125 25.210938 Z M 9.605469 27.71875 C 9.804688 27.765625 9.910156 27.84375 9.933594 27.960938 C 9.984375 28.078125 10.082031 28.164062 10.238281 28.226562 L 8.660156 28.226562 C 7.878906 27.972656 8.28125 27.707031 8.394531 27.71875 Z M 10.304688 28.273438 C 10.296875 28.503906 10.414062 28.664062 10.632812 28.769531 L 8.9375 28.769531 C 8.355469 28.683594 8.289062 28.300781 8.675781 28.273438 Z M 10.742188 28.816406 C 11.03125 28.964844 11.226562 29.148438 11.324219 29.371094 L 9.664062 29.371094 C 9.21875 29.273438 9.039062 29.214844 8.914062 29.121094 C 8.78125 29.023438 8.757812 28.820312 8.980469 28.808594 L 10.742188 28.808594 Z M 11.449219 29.421875 C 11.886719 29.527344 12.125 29.703125 12.175781 29.9375 L 10.617188 29.9375 C 10.347656 29.894531 10.132812 29.839844 9.960938 29.792969 C 9.441406 29.65625 9.390625 29.421875 9.695312 29.417969 L 11.449219 29.417969 Z M 12.214844 29.984375 C 12.453125 30.132812 12.808594 30.21875 13.269531 30.246094 C 13.316406 30.390625 13.441406 30.511719 13.628906 30.625 L 13.65625 30.65625 C 11.375 30.667969 10.402344 30.441406 10.734375 29.976562 L 12.214844 29.976562 Z M 9.84375 27.273438 C 9.449219 27.074219 9.316406 26.941406 9.433594 26.882812 L 10.089844 26.882812 C 10.429688 27 10.585938 27.132812 10.550781 27.273438 Z M 9.457031 26.832031 C 9.054688 26.679688 8.929688 26.554688 9.078125 26.453125 L 9.574219 26.453125 C 9.835938 26.582031 9.941406 26.707031 9.878906 26.832031 Z M 9.070312 26.398438 C 8.816406 26.269531 8.707031 26.140625 8.757812 26 C 8.863281 25.824219 9.417969 26.203125 9.335938 26.398438 Z M 10.808594 27.332031 C 11.308594 27.484375 11.613281 27.632812 11.613281 27.777344 L 10.363281 27.777344 C 9.820312 27.570312 9.636719 27.417969 9.828125 27.332031 Z M 12 27.828125 C 12.644531 27.933594 12.921875 28.167969 12.882812 28.332031 L 10.957031 28.332031 C 10.320312 28.117188 10.125 27.945312 10.363281 27.828125 Z M 13.6875 28.390625 C 14.339844 28.515625 14.667969 28.691406 14.675781 28.914062 L 11.664062 28.914062 C 10.972656 28.71875 10.75 28.542969 10.996094 28.390625 Z M 15.925781 28.972656 C 16.800781 29.109375 17.210938 29.285156 17.152344 29.515625 L 12.46875 29.515625 C 11.65625 29.292969 11.390625 29.117188 11.6875 28.972656 Z M 17.953125 29.566406 C 18.519531 29.675781 18.773438 29.886719 18.71875 30.199219 L 13.761719 30.199219 C 12.617188 29.957031 12.199219 29.75 12.511719 29.566406 Z M 19.367188 30.257812 C 19.738281 30.519531 19.65625 30.726562 19.128906 30.871094 L 15.679688 30.871094 C 14.164062 30.664062 13.558594 30.460938 13.851562 30.257812 Z M 19.367188 30.257812 "/>
<path style=" stroke:none;fill-rule:evenodd;fill:rgb(95.294118%,79.607843%,0%);fill-opacity:1;" d="M 39.046875 26.335938 C 38.597656 27.039062 36.769531 27.765625 33.582031 28.507812 C 30.101562 29.234375 27.789062 30.296875 26.644531 31.6875 C 26.011719 31.753906 26.273438 31.207031 27.449219 30.03125 C 27.886719 29.691406 28.371094 29.390625 28.941406 29.117188 C 30.464844 28.378906 32.511719 27.855469 35.3125 27.464844 C 36.226562 27.332031 37.03125 27.183594 37.714844 26.96875 C 38.234375 26.796875 38.679688 26.597656 39.046875 26.335938 Z M 40.6875 26.96875 C 40.828125 26.851562 40.875 26.746094 40.835938 26.660156 C 40.777344 26.550781 40.605469 26.71875 40.21875 26.8125 C 40.019531 26.863281 39.714844 26.882812 39.609375 27.007812 C 39.574219 27.039062 39.566406 27.078125 39.574219 27.125 C 39.617188 27.328125 39.832031 27.273438 40.035156 27.242188 C 40.273438 27.203125 40.515625 27.113281 40.6875 26.96875 Z M 40.679688 27.308594 C 40.652344 27.410156 40.480469 27.574219 40.191406 27.667969 L 39.335938 27.667969 C 39.277344 27.554688 39.277344 27.46875 39.328125 27.40625 C 39.378906 27.339844 39.519531 27.339844 39.648438 27.328125 C 39.796875 27.3125 39.9375 27.300781 40.042969 27.289062 C 40.101562 27.28125 40.21875 27.253906 40.316406 27.230469 C 40.523438 27.175781 40.726562 27.117188 40.679688 27.308594 Z M 40.816406 26.457031 C 41 26.257812 41.015625 26.132812 40.882812 26.085938 C 40.828125 26.066406 40.6875 26.152344 40.554688 26.21875 C 40.421875 26.28125 40.292969 26.335938 40.234375 26.375 C 40.167969 26.398438 39.90625 26.542969 39.847656 26.679688 C 39.765625 26.890625 39.921875 26.824219 40.0625 26.796875 C 40.109375 26.785156 40.160156 26.777344 40.199219 26.765625 C 40.429688 26.699219 40.6875 26.609375 40.816406 26.457031 Z M 40.851562 25.929688 C 40.964844 25.746094 40.976562 25.582031 40.652344 25.675781 C 40.09375 25.878906 40.414062 26.074219 40.21875 26.316406 C 40.421875 26.210938 40.734375 26.113281 40.851562 25.929688 Z M 40.726562 25.1875 L 40.570312 25.257812 C 40.347656 25.355469 39.453125 25.785156 40.136719 25.902344 C 40.265625 25.78125 40.441406 25.695312 40.636719 25.636719 C 40.84375 25.578125 41.066406 25.179688 40.726562 25.1875 Z M 40.671875 25.152344 C 40.734375 24.984375 40.703125 24.839844 40.5625 24.703125 C 40.523438 24.636719 40.472656 24.714844 40.414062 24.925781 C 40.398438 24.984375 40.347656 25.0625 40.257812 25.164062 C 40.175781 25.269531 40.175781 25.335938 40.234375 25.347656 C 40.332031 25.304688 40.441406 25.257812 40.539062 25.210938 Z M 39.203125 27.71875 C 39.007812 27.765625 38.898438 27.84375 38.875 27.960938 C 38.828125 28.078125 38.726562 28.164062 38.570312 28.226562 L 40.152344 28.226562 C 40.933594 27.972656 40.53125 27.707031 40.414062 27.71875 Z M 38.511719 28.273438 C 38.523438 28.503906 38.40625 28.664062 38.183594 28.769531 L 39.878906 28.769531 C 40.464844 28.683594 40.53125 28.300781 40.144531 28.273438 Z M 38.078125 28.816406 C 37.789062 28.964844 37.589844 29.148438 37.492188 29.371094 L 39.15625 29.371094 C 39.601562 29.273438 39.78125 29.214844 39.90625 29.121094 C 40.035156 29.023438 40.0625 28.820312 39.839844 28.808594 L 38.078125 28.808594 Z M 37.371094 29.421875 C 36.933594 29.527344 36.695312 29.703125 36.644531 29.9375 L 38.199219 29.9375 C 38.472656 29.894531 38.6875 29.839844 38.859375 29.792969 C 39.378906 29.65625 39.425781 29.421875 39.121094 29.417969 L 37.371094 29.417969 Z M 36.605469 29.984375 C 36.363281 30.132812 36.011719 30.21875 35.550781 30.246094 C 35.5 30.390625 35.378906 30.511719 35.1875 30.625 L 35.164062 30.65625 C 37.445312 30.667969 38.414062 30.441406 38.085938 29.976562 L 36.605469 29.976562 Z M 38.964844 27.273438 C 39.363281 27.074219 39.492188 26.941406 39.378906 26.882812 L 38.71875 26.882812 C 38.382812 27 38.226562 27.132812 38.257812 27.273438 Z M 39.363281 26.832031 C 39.765625 26.679688 39.886719 26.554688 39.738281 26.453125 L 39.246094 26.453125 C 38.984375 26.582031 38.875 26.707031 38.941406 26.832031 Z M 39.738281 26.398438 C 39.996094 26.269531 40.101562 26.140625 40.054688 26 C 39.945312 25.824219 39.394531 26.203125 39.476562 26.398438 Z M 38.003906 27.332031 C 37.5 27.484375 37.195312 27.632812 37.195312 27.777344 L 38.449219 27.777344 C 38.992188 27.570312 39.171875 27.417969 38.984375 27.332031 Z M 36.808594 27.828125 C 36.167969 27.933594 35.886719 28.167969 35.929688 28.332031 L 37.855469 28.332031 C 38.488281 28.117188 38.6875 27.945312 38.449219 27.828125 Z M 35.128906 28.390625 C 34.480469 28.515625 34.152344 28.691406 34.144531 28.914062 L 37.15625 28.914062 C 37.847656 28.71875 38.070312 28.542969 37.820312 28.390625 Z M 32.890625 28.972656 C 32.019531 29.109375 31.609375 29.285156 31.664062 29.515625 L 36.347656 29.515625 C 37.164062 29.292969 37.425781 29.117188 37.128906 28.972656 Z M 30.859375 29.566406 C 30.289062 29.675781 30.035156 29.886719 30.09375 30.199219 L 35.046875 30.199219 C 36.191406 29.957031 36.613281 29.75 36.300781 29.566406 Z M 29.449219 30.257812 C 29.082031 30.519531 29.164062 30.726562 29.691406 30.871094 L 33.136719 30.871094 C 34.652344 30.664062 35.261719 30.460938 34.964844 30.257812 Z M 29.449219 30.257812 "/>
<path style=" stroke:none;fill-rule:nonzero;fill:rgb(95.294118%,79.607843%,0%);fill-opacity:1;" d="M 20.726562 36.210938 C 20.511719 36.191406 20.488281 36.296875 20.316406 36.355469 C 20.546875 36.46875 20.765625 36.429688 20.964844 36.3125 C 21.632812 35.996094 20.949219 35.519531 20.777344 35.820312 C 20.734375 35.894531 20.636719 36.035156 20.726562 36.210938 Z M 20.726562 36.210938 "/>
<path style=" stroke:none;fill-rule:nonzero;fill:rgb(95.294118%,79.607843%,0%);fill-opacity:1;" d="M 28.09375 36.210938 C 28.308594 36.191406 28.332031 36.296875 28.503906 36.355469 C 28.273438 36.46875 28.050781 36.429688 27.855469 36.3125 C 27.1875 35.996094 27.871094 35.519531 28.042969 35.820312 C 28.078125 35.894531 28.175781 36.035156 28.09375 36.210938 Z M 28.09375 36.210938 "/>
<path style=" stroke:none;fill-rule:nonzero;fill:rgb(95.294118%,79.607843%,0%);fill-opacity:1;" d="M 19.84375 35.664062 C 19.632812 35.878906 19.605469 35.957031 19.894531 36.140625 C 20.09375 36.03125 20.414062 35.914062 20.316406 35.644531 C 20.304688 35.625 20.324219 35.613281 20.339844 35.605469 C 20.4375 35.585938 20.414062 35.8125 20.40625 35.855469 C 20.488281 35.894531 20.644531 35.917969 20.675781 35.832031 C 20.765625 35.578125 20.472656 35.109375 20.132812 35.421875 C 20.042969 35.507812 19.9375 35.578125 19.84375 35.664062 Z M 19.84375 35.664062 "/>
<path style=" stroke:none;fill-rule:nonzero;fill:rgb(95.294118%,79.607843%,0%);fill-opacity:1;" d="M 28.972656 35.664062 C 29.1875 35.878906 29.210938 35.957031 28.925781 36.140625 C 28.726562 36.03125 28.40625 35.914062 28.503906 35.644531 C 28.511719 35.625 28.496094 35.613281 28.480469 35.605469 C 28.382812 35.585938 28.40625 35.8125 28.414062 35.855469 C 28.332031 35.894531 28.175781 35.917969 28.140625 35.832031 C 28.050781 35.578125 28.347656 35.109375 28.683594 35.421875 C 28.769531 35.507812 28.875 35.578125 28.972656 35.664062 Z M 28.972656 35.664062 "/>
<path style=" stroke:none;fill-rule:nonzero;fill:rgb(95.294118%,79.607843%,0%);fill-opacity:1;" d="M 19.65625 32.394531 C 19.078125 32.386719 18.742188 32.648438 18.832031 33.085938 C 19.097656 32.851562 19.367188 32.785156 19.648438 32.902344 C 19.566406 32.746094 19.574219 32.550781 19.65625 32.394531 Z M 19.65625 32.394531 "/>
<path style=" stroke:none;fill-rule:nonzero;fill:rgb(95.294118%,79.607843%,0%);fill-opacity:1;" d="M 20.019531 35.429688 C 19.9375 35.265625 19.476562 34.878906 19.269531 35.167969 C 19.1875 35.296875 18.832031 35.496094 18.929688 35.652344 C 19.039062 35.832031 19.078125 35.972656 19.277344 36.054688 C 19.335938 35.957031 19.351562 35.832031 19.308594 35.683594 C 19.292969 35.675781 19.285156 35.671875 19.269531 35.671875 C 19.210938 35.664062 19.261719 35.554688 19.390625 35.636719 C 19.464844 35.59375 19.507812 35.539062 19.515625 35.476562 C 19.515625 35.46875 19.515625 35.460938 19.515625 35.457031 C 19.523438 35.4375 19.53125 35.429688 19.550781 35.421875 C 19.605469 35.417969 19.589844 35.46875 19.589844 35.519531 C 19.679688 35.558594 19.78125 35.558594 19.886719 35.515625 C 19.9375 35.496094 19.976562 35.460938 20.019531 35.429688 Z M 20.019531 35.429688 "/>
<path style=" stroke:none;fill-rule:nonzero;fill:rgb(95.294118%,79.607843%,0%);fill-opacity:1;" d="M 28.800781 35.429688 C 28.882812 35.265625 29.34375 34.878906 29.550781 35.167969 C 29.632812 35.296875 29.984375 35.496094 29.886719 35.652344 C 29.78125 35.832031 29.738281 35.972656 29.542969 36.054688 C 29.484375 35.957031 29.46875 35.832031 29.507812 35.683594 C 29.523438 35.675781 29.535156 35.671875 29.550781 35.671875 C 29.609375 35.664062 29.558594 35.554688 29.425781 35.636719 C 29.351562 35.59375 29.3125 35.539062 29.304688 35.476562 C 29.304688 35.46875 29.304688 35.460938 29.304688 35.457031 C 29.292969 35.4375 29.285156 35.429688 29.269531 35.421875 C 29.210938 35.417969 29.230469 35.46875 29.230469 35.519531 C 29.136719 35.558594 29.039062 35.558594 28.933594 35.515625 C 28.875 35.496094 28.84375 35.460938 28.800781 35.429688 Z M 28.800781 35.429688 "/>
<path style=" stroke:none;fill-rule:evenodd;fill:rgb(95.294118%,79.607843%,0%);fill-opacity:1;" d="M 19.671875 32.601562 C 19.640625 32.816406 19.820312 32.960938 20.199219 33.03125 C 20.125 32.96875 20.101562 32.914062 20.101562 32.871094 C 20.339844 32.980469 20.644531 33 20.996094 32.921875 C 21.070312 32.894531 21.171875 32.933594 21.277344 33.039062 C 21.367188 33 21.382812 32.941406 21.308594 32.871094 C 21.707031 33.078125 21.769531 33.046875 21.507812 32.777344 C 21.96875 32.871094 22.027344 32.8125 21.664062 32.609375 C 22.214844 32.570312 22.304688 32.492188 21.953125 32.378906 C 22.472656 32.328125 22.4375 32.269531 21.84375 32.203125 C 21.976562 32.179688 22.050781 32.132812 22.066406 32.046875 L 20.503906 32.046875 C 20.222656 32.035156 20.019531 32.125 19.894531 32.21875 C 19.953125 32.261719 20.074219 32.269531 20.273438 32.25 C 20.460938 32.210938 20.609375 32.203125 20.71875 32.25 C 20.570312 32.238281 20.453125 32.261719 20.378906 32.320312 C 20.355469 32.4375 20.265625 32.484375 20.101562 32.472656 C 19.992188 32.453125 19.9375 32.398438 19.925781 32.316406 C 19.894531 32.296875 19.871094 32.277344 19.855469 32.257812 C 19.828125 32.277344 19.8125 32.296875 19.796875 32.316406 C 19.730469 32.394531 19.6875 32.496094 19.671875 32.601562 Z M 19.671875 32.601562 "/>
<path style=" stroke:none;fill-rule:evenodd;fill:rgb(95.294118%,79.607843%,0%);fill-opacity:1;" d="M 18.445312 34.78125 C 19.714844 35.03125 20.527344 35.011719 20.898438 34.738281 C 20.660156 34.71875 20.40625 34.664062 20.140625 34.566406 C 19.449219 34.503906 18.660156 34.441406 18.238281 34.730469 C 18.3125 34.75 18.378906 34.761719 18.445312 34.78125 Z M 18.445312 34.78125 "/>
<path style=" stroke:none;fill-rule:evenodd;fill:rgb(95.294118%,79.607843%,0%);fill-opacity:1;" d="M 30.363281 34.78125 C 29.097656 35.03125 28.28125 35.011719 27.910156 34.738281 C 28.152344 34.71875 28.40625 34.664062 28.667969 34.566406 C 29.359375 34.503906 30.152344 34.441406 30.570312 34.730469 C 30.496094 34.75 30.429688 34.761719 30.363281 34.78125 Z M 30.363281 34.78125 "/>
<path style=" stroke:none;fill-rule:evenodd;fill:rgb(95.294118%,79.607843%,0%);fill-opacity:1;" d="M 25.179688 32.113281 C 25.285156 32.039062 25.335938 31.960938 25.34375 31.878906 L 25.335938 31.871094 C 25.105469 32.066406 24.683594 32.066406 24.363281 32.054688 L 22.140625 32.054688 C 22.109375 32.152344 22.242188 32.25 22.527344 32.355469 C 22.691406 32.378906 22.867188 32.4375 23.046875 32.53125 C 23.089844 32.367188 23.007812 32.257812 22.792969 32.199219 C 22.964844 32.191406 23.136719 32.25 23.3125 32.386719 C 23.433594 32.496094 23.648438 32.53125 23.960938 32.496094 C 24.148438 32.476562 24.304688 32.550781 24.4375 32.71875 C 24.332031 32.695312 24.25 32.699219 24.191406 32.734375 C 24.148438 32.757812 24.222656 32.804688 24.429688 32.882812 C 24.621094 32.972656 24.742188 33.058594 24.792969 33.152344 C 25.0625 32.832031 24.957031 32.628906 24.472656 32.542969 C 24.265625 32.28125 24.003906 32.203125 23.664062 32.308594 C 23.550781 32.320312 23.425781 32.296875 23.328125 32.21875 L 23.351562 32.230469 C 23.484375 32.261719 23.613281 32.261719 23.746094 32.222656 C 24.066406 32.125 24.324219 32.199219 24.511719 32.4375 C 24.570312 32.492188 24.675781 32.515625 24.839844 32.523438 C 24.972656 32.511719 25.113281 32.53125 25.253906 32.589844 C 25.226562 32.394531 25.039062 32.296875 24.683594 32.300781 C 24.609375 32.289062 24.5625 32.242188 24.519531 32.160156 C 24.882812 32.09375 25.203125 32.257812 25.476562 32.65625 C 25.828125 33.007812 26.050781 33.273438 26.140625 33.457031 C 26.371094 33.113281 26.289062 32.816406 25.894531 32.597656 C 25.804688 32.515625 25.796875 32.472656 25.855469 32.457031 C 25.953125 32.453125 26.019531 32.503906 26.042969 32.628906 L 26.035156 32.609375 C 26.257812 32.210938 25.5 32.191406 25.179688 32.113281 Z M 25.179688 32.113281 "/>
<path style=" stroke:none;fill-rule:evenodd;fill:rgb(95.294118%,79.607843%,0%);fill-opacity:1;" d="M 21.722656 32.902344 C 21.730469 33.191406 21.910156 33.3125 22.257812 33.273438 C 22.25 33.105469 22.125 32.988281 21.886719 32.914062 Z M 21.722656 32.902344 "/>
<path style=" stroke:none;fill-rule:evenodd;fill:rgb(95.294118%,79.607843%,0%);fill-opacity:1;" d="M 21.886719 32.648438 C 22.085938 32.949219 22.257812 33.046875 22.414062 32.941406 C 22.488281 32.980469 22.59375 33.007812 22.726562 33.03125 C 22.742188 32.960938 22.644531 32.824219 22.429688 32.628906 C 22.621094 32.589844 22.816406 32.65625 23.039062 32.816406 C 23.113281 32.675781 22.949219 32.542969 22.535156 32.425781 C 22.472656 32.472656 22.390625 32.492188 22.296875 32.484375 C 22.242188 32.582031 22.101562 32.636719 21.886719 32.648438 Z M 21.886719 32.648438 "/>
<path style=" stroke:none;fill-rule:evenodd;fill:rgb(95.294118%,79.607843%,0%);fill-opacity:1;" d="M 22.453125 33.429688 C 22.644531 33.5625 22.734375 33.71875 22.71875 33.902344 C 22.390625 33.796875 22.214844 33.628906 22.183594 33.390625 C 22.347656 33.347656 22.40625 33.25 22.347656 33.097656 C 22.691406 33.058594 22.957031 33.210938 23.136719 33.535156 C 22.957031 33.550781 22.726562 33.515625 22.453125 33.429688 Z M 22.453125 33.429688 "/>
<path style=" stroke:none;fill-rule:evenodd;fill:rgb(95.294118%,79.607843%,0%);fill-opacity:1;" d="M 22.972656 32.921875 C 23.121094 32.921875 23.195312 32.894531 23.203125 32.84375 C 23.417969 32.929688 23.542969 33.050781 23.589844 33.222656 C 23.0625 33.230469 22.851562 33.132812 22.972656 32.921875 Z M 22.972656 32.921875 "/>
<path style=" stroke:none;fill-rule:evenodd;fill:rgb(95.294118%,79.607843%,0%);fill-opacity:1;" d="M 23.128906 32.425781 C 23.164062 32.472656 23.164062 32.550781 23.136719 32.648438 C 23.34375 32.8125 23.542969 32.84375 23.730469 32.757812 C 23.789062 32.734375 23.863281 32.738281 23.9375 32.785156 C 23.929688 32.65625 23.8125 32.597656 23.582031 32.601562 C 23.484375 32.667969 23.367188 32.609375 23.238281 32.425781 Z M 23.128906 32.425781 "/>
<path style=" stroke:none;fill-rule:evenodd;fill:rgb(95.294118%,79.607843%,0%);fill-opacity:1;" d="M 23.679688 32.910156 C 23.886719 32.953125 24.050781 32.941406 24.167969 32.863281 C 24.464844 32.960938 24.5625 33.15625 24.472656 33.457031 C 23.953125 33.398438 23.6875 33.222656 23.679688 32.910156 Z M 23.679688 32.910156 "/>
<path style=" stroke:none;fill-rule:evenodd;fill:rgb(95.294118%,79.607843%,0%);fill-opacity:1;" d="M 23.292969 33.3125 C 23.855469 33.28125 24.09375 33.457031 24.011719 33.847656 C 23.492188 33.769531 23.253906 33.589844 23.292969 33.3125 Z M 23.292969 33.3125 "/>
<path style=" stroke:none;fill-rule:evenodd;fill:rgb(95.294118%,79.607843%,0%);fill-opacity:1;" d="M 22.964844 33.582031 C 23.320312 33.613281 23.492188 33.808594 23.484375 34.167969 C 23.007812 34.089844 22.832031 33.886719 22.964844 33.582031 Z M 22.964844 33.582031 "/>
<path style=" stroke:none;fill-rule:evenodd;fill:rgb(95.294118%,79.607843%,0%);fill-opacity:1;" d="M 22.777344 34.449219 C 22.765625 34.3125 22.691406 34.203125 22.546875 34.136719 C 22.496094 33.988281 22.554688 33.933594 22.710938 33.980469 C 22.933594 34.097656 22.957031 34.253906 22.777344 34.449219 Z M 22.777344 34.449219 "/>
<path style=" stroke:none;fill-rule:evenodd;fill:rgb(95.294118%,79.607843%,0%);fill-opacity:1;" d="M 24.703125 34.527344 C 24.644531 34.253906 24.488281 34.050781 24.234375 33.933594 C 24.199219 33.828125 24.199219 33.730469 24.222656 33.632812 C 24.496094 33.5625 24.703125 33.628906 24.851562 33.816406 C 25.007812 34.089844 24.964844 34.332031 24.703125 34.527344 Z M 24.703125 34.527344 "/>
<path style=" stroke:none;fill-rule:evenodd;fill:rgb(95.294118%,79.607843%,0%);fill-opacity:1;" d="M 23.878906 33.988281 C 24.109375 33.992188 24.265625 34.050781 24.355469 34.175781 C 24.324219 34.207031 24.316406 34.304688 24.339844 34.464844 C 24.378906 34.660156 24.332031 34.769531 24.167969 34.769531 C 24.148438 34.644531 24.050781 34.527344 23.878906 34.421875 C 23.632812 34.226562 23.632812 34.085938 23.878906 33.988281 Z M 23.878906 33.988281 "/>
<path style=" stroke:none;fill-rule:evenodd;fill:rgb(95.294118%,79.607843%,0%);fill-opacity:1;" d="M 23.640625 34.503906 C 23.566406 34.644531 23.542969 34.789062 23.558594 34.925781 C 23.023438 34.710938 22.882812 34.507812 23.136719 34.320312 C 23.238281 34.382812 23.34375 34.378906 23.476562 34.285156 C 23.558594 34.28125 23.613281 34.351562 23.640625 34.503906 Z M 23.640625 34.503906 "/>
<path style=" stroke:none;fill-rule:evenodd;fill:rgb(95.294118%,79.607843%,0%);fill-opacity:1;" d="M 25.246094 34.085938 C 25.226562 33.933594 25.113281 33.789062 24.898438 33.660156 C 24.808594 33.5625 24.800781 33.445312 24.875 33.308594 C 24.972656 33.203125 25.105469 33.210938 25.253906 33.3125 C 25.582031 33.582031 25.589844 33.941406 25.246094 34.085938 Z M 25.246094 34.085938 "/>
<path style=" stroke:none;fill-rule:evenodd;fill:rgb(95.294118%,79.607843%,0%);fill-opacity:1;" d="M 25.246094 32.675781 C 25.097656 32.980469 25.179688 33.214844 25.492188 33.386719 C 25.738281 33.253906 25.730469 33.074219 25.449219 32.84375 C 25.367188 32.777344 25.292969 32.726562 25.246094 32.675781 Z M 25.246094 32.675781 "/>
<path style=" stroke:none;fill-rule:evenodd;fill:rgb(95.294118%,79.607843%,0%);fill-opacity:1;" d="M 25.804688 33.234375 C 25.753906 33.351562 25.6875 33.429688 25.597656 33.46875 C 25.640625 33.632812 25.746094 33.710938 25.910156 33.691406 C 26.035156 33.628906 25.992188 33.476562 25.804688 33.234375 Z M 25.804688 33.234375 "/>
<path style=" stroke:none;fill-rule:evenodd;fill:rgb(95.294118%,79.607843%,0%);fill-opacity:1;" d="M 25.589844 34.128906 C 25.714844 34.066406 25.78125 33.972656 25.789062 33.855469 C 25.953125 33.863281 26.050781 33.953125 26.085938 34.117188 C 26.140625 34.390625 26.058594 34.554688 25.8125 34.613281 C 25.847656 34.449219 25.773438 34.285156 25.589844 34.128906 Z M 25.589844 34.128906 "/>
<path style=" stroke:none;fill-rule:evenodd;fill:rgb(95.294118%,79.607843%,0%);fill-opacity:1;" d="M 26.289062 33.84375 C 26.234375 33.757812 26.148438 33.707031 26.109375 33.726562 C 26.066406 33.746094 26.085938 33.828125 26.140625 33.914062 C 26.199219 34 26.28125 34.050781 26.324219 34.03125 C 26.363281 34.011719 26.355469 33.925781 26.289062 33.84375 Z M 26.289062 33.84375 "/>
<path style=" stroke:none;fill-rule:evenodd;fill:rgb(95.294118%,79.607843%,0%);fill-opacity:1;" d="M 26.363281 33.671875 C 26.378906 33.777344 26.4375 33.847656 26.488281 33.847656 C 26.539062 33.84375 26.570312 33.757812 26.554688 33.652344 C 26.539062 33.550781 26.480469 33.476562 26.429688 33.476562 C 26.371094 33.484375 26.347656 33.570312 26.363281 33.671875 Z M 26.363281 33.671875 "/>
<path style=" stroke:none;fill-rule:evenodd;fill:rgb(95.294118%,79.607843%,0%);fill-opacity:1;" d="M 24.519531 34.5625 C 24.683594 34.664062 24.816406 34.671875 24.933594 34.574219 C 24.996094 34.671875 25.046875 34.75 25.089844 34.800781 C 24.898438 35.03125 24.652344 35.117188 24.355469 35.058594 C 24.5625 34.941406 24.585938 34.800781 24.445312 34.632812 Z M 24.519531 34.5625 "/>
<path style=" stroke:none;fill-rule:evenodd;fill:rgb(95.294118%,79.607843%,0%);fill-opacity:1;" d="M 23.917969 35.058594 C 23.917969 34.992188 23.878906 34.933594 23.789062 34.878906 C 23.65625 34.808594 23.664062 34.730469 23.804688 34.660156 C 23.894531 34.632812 23.976562 34.671875 24.058594 34.777344 C 24.140625 34.925781 24.101562 35.019531 23.917969 35.058594 Z M 23.917969 35.058594 "/>
<path style=" stroke:none;fill-rule:evenodd;fill:rgb(95.294118%,79.607843%,0%);fill-opacity:1;" d="M 24.421875 35.566406 C 24.480469 35.4375 24.503906 35.335938 24.488281 35.273438 C 24.519531 35.273438 24.570312 35.285156 24.621094 35.316406 C 24.667969 35.351562 25.417969 35.800781 25.179688 35.898438 C 25.089844 35.917969 25.046875 35.886719 25.039062 35.800781 C 25.023438 35.671875 24.941406 35.566406 24.785156 35.488281 C 24.726562 35.449219 24.636719 35.382812 24.5625 35.371094 C 24.816406 35.996094 25.171875 36.3125 25.640625 36.3125 C 25.664062 36.160156 25.574219 35.945312 25.367188 35.664062 C 25.238281 35.535156 25.144531 35.417969 25.113281 35.3125 C 25.3125 35.578125 25.550781 35.78125 25.828125 35.933594 C 25.789062 35.695312 25.625 35.457031 25.46875 35.253906 C 25.804688 35.671875 26.117188 35.894531 26.40625 35.917969 C 26.25 35.730469 26.148438 35.546875 26.109375 35.378906 C 25.976562 35.296875 25.894531 35.207031 25.863281 35.101562 C 25.960938 35.21875 26.125 35.292969 26.339844 35.332031 C 26.339844 35.21875 26.25 35.070312 26.085938 34.886719 C 26.464844 35.140625 26.792969 35.285156 27.089844 35.324219 C 27.089844 35.226562 26.914062 35.03125 26.5625 34.738281 C 26.683594 34.777344 26.769531 34.800781 26.824219 34.816406 C 26.792969 34.652344 26.652344 34.515625 26.40625 34.398438 C 26.371094 34.484375 26.308594 34.566406 26.222656 34.640625 C 26.355469 34.769531 26.488281 34.875 26.609375 34.953125 C 26.453125 34.941406 26.296875 34.859375 26.132812 34.710938 C 26.058594 34.761719 25.976562 34.816406 25.886719 34.859375 C 25.976562 34.925781 26.035156 34.992188 26.050781 35.058594 C 26.003906 35.03125 25.929688 34.980469 25.820312 34.894531 C 25.746094 34.925781 25.65625 34.960938 25.574219 34.992188 C 25.648438 35.128906 25.730469 35.234375 25.828125 35.304688 C 25.714844 35.285156 25.605469 35.1875 25.507812 35.011719 C 25.441406 35.03125 25.367188 35.050781 25.285156 35.070312 C 25.320312 35.128906 25.34375 35.199219 25.375 35.285156 C 25.320312 35.257812 25.253906 35.195312 25.1875 35.089844 C 25.136719 35.097656 25.097656 35.109375 25.046875 35.117188 C 25.082031 35.207031 25.03125 35.214844 24.890625 35.136719 C 24.742188 35.15625 24.578125 35.160156 24.421875 35.160156 C 24.257812 35.160156 24.101562 35.15625 23.953125 35.136719 C 23.8125 35.214844 23.753906 35.207031 23.796875 35.117188 C 23.746094 35.109375 23.699219 35.101562 23.65625 35.089844 C 23.589844 35.195312 23.523438 35.257812 23.46875 35.285156 C 23.5 35.199219 23.53125 35.128906 23.558594 35.070312 C 23.484375 35.050781 23.410156 35.03125 23.335938 35.011719 C 23.226562 35.179688 23.121094 35.277344 23.015625 35.304688 C 23.113281 35.234375 23.203125 35.128906 23.269531 34.992188 C 23.179688 34.964844 23.097656 34.933594 23.023438 34.894531 C 22.914062 34.980469 22.832031 35.03125 22.792969 35.058594 C 22.816406 35 22.867188 34.933594 22.957031 34.859375 C 22.867188 34.816406 22.785156 34.761719 22.710938 34.710938 C 22.546875 34.855469 22.378906 34.933594 22.230469 34.953125 C 22.355469 34.867188 22.488281 34.761719 22.621094 34.640625 C 22.535156 34.5625 22.480469 34.484375 22.4375 34.390625 C 22.191406 34.507812 22.050781 34.644531 22.019531 34.808594 C 22.074219 34.796875 22.160156 34.769531 22.28125 34.730469 C 21.929688 35.023438 21.753906 35.21875 21.753906 35.316406 C 22.050781 35.277344 22.378906 35.128906 22.757812 34.878906 C 22.585938 35.0625 22.503906 35.207031 22.503906 35.324219 C 22.71875 35.285156 22.875 35.214844 22.980469 35.097656 C 22.949219 35.199219 22.867188 35.292969 22.734375 35.371094 C 22.691406 35.539062 22.59375 35.722656 22.4375 35.914062 C 22.726562 35.886719 23.039062 35.664062 23.375 35.246094 C 23.21875 35.449219 23.054688 35.683594 23.015625 35.925781 C 23.292969 35.773438 23.53125 35.574219 23.730469 35.304688 C 23.6875 35.410156 23.605469 35.527344 23.476562 35.65625 C 23.269531 35.9375 23.179688 36.152344 23.203125 36.304688 C 23.671875 36.304688 24.027344 35.992188 24.28125 35.363281 C 24.207031 35.378906 24.117188 35.441406 24.058594 35.480469 C 23.910156 35.558594 23.820312 35.664062 23.804688 35.792969 C 23.804688 35.878906 23.753906 35.914062 23.664062 35.894531 C 23.425781 35.789062 24.167969 35.34375 24.222656 35.3125 C 24.273438 35.277344 24.324219 35.257812 24.355469 35.265625 C 24.339844 35.335938 24.355469 35.4375 24.421875 35.566406 Z M 24.5625 36.402344 C 24.601562 36.179688 24.609375 35.898438 24.585938 35.59375 L 24.488281 35.792969 C 24.496094 36.109375 24.480469 36.269531 24.445312 36.402344 C 24.488281 36.402344 24.519531 36.402344 24.5625 36.402344 Z M 24.398438 36.402344 C 24.363281 36.269531 24.347656 36.109375 24.355469 35.792969 L 24.257812 35.59375 C 24.234375 35.898438 24.242188 36.179688 24.28125 36.402344 C 24.316406 36.402344 24.355469 36.402344 24.398438 36.402344 Z M 24.398438 36.402344 "/>
<path style=" stroke:none;fill-rule:evenodd;fill:rgb(95.294118%,79.607843%,0%);fill-opacity:1;" d="M 25.285156 34.808594 C 25.648438 34.585938 25.617188 34.382812 25.171875 34.203125 C 25.136719 34.332031 25.097656 34.421875 25.039062 34.484375 C 25.15625 34.546875 25.238281 34.660156 25.285156 34.808594 Z M 25.285156 34.808594 "/>
<path style=" stroke:none;fill-rule:nonzero;fill:rgb(0%,0%,0%);fill-opacity:1;" d="M 24.667969 20.199219 C 24.675781 20.203125 24.675781 20.210938 24.675781 20.21875 C 24.667969 20.222656 24.660156 20.222656 24.652344 20.222656 L 24.40625 20.09375 L 24.160156 20.222656 C 24.148438 20.230469 24.140625 20.222656 24.132812 20.21875 C 24.125 20.210938 24.132812 20.199219 24.140625 20.199219 L 24.398438 20.066406 L 24.40625 20.058594 L 24.414062 20.066406 Z M 24.667969 20.199219 "/>
<path style=" stroke:none;fill-rule:nonzero;fill:rgb(0%,0%,0%);fill-opacity:1;" d="M 24.71875 20.277344 C 24.726562 20.28125 24.734375 20.296875 24.726562 20.300781 C 24.71875 20.308594 24.703125 20.316406 24.695312 20.308594 L 24.40625 20.160156 L 24.117188 20.308594 C 24.109375 20.316406 24.09375 20.308594 24.085938 20.300781 C 24.074219 20.296875 24.085938 20.28125 24.09375 20.277344 L 24.398438 20.121094 L 24.40625 20.113281 L 24.414062 20.121094 Z M 24.71875 20.277344 "/>
<path style=" stroke:none;fill-rule:nonzero;fill:rgb(0%,0%,0%);fill-opacity:1;" d="M 24.757812 20.375 C 24.765625 20.378906 24.777344 20.394531 24.765625 20.398438 C 24.757812 20.40625 24.742188 20.414062 24.734375 20.40625 L 24.40625 20.238281 L 24.074219 20.40625 C 24.066406 20.414062 24.050781 20.40625 24.042969 20.398438 C 24.035156 20.394531 24.042969 20.378906 24.050781 20.375 L 24.398438 20.199219 L 24.40625 20.191406 L 24.414062 20.199219 Z M 24.757812 20.375 "/>
<path style=" stroke:none;fill-rule:nonzero;fill:rgb(0%,0%,0%);fill-opacity:1;" d="M 24.808594 20.484375 C 24.816406 20.492188 24.824219 20.503906 24.816406 20.511719 C 24.808594 20.515625 24.800781 20.523438 24.785156 20.515625 L 24.40625 20.320312 L 24.027344 20.515625 C 24.019531 20.523438 24.003906 20.515625 23.992188 20.511719 C 23.984375 20.503906 23.992188 20.492188 24.003906 20.484375 L 24.390625 20.28125 L 24.398438 20.277344 L 24.40625 20.28125 Z M 24.808594 20.484375 "/>
<path style=" stroke:none;fill-rule:nonzero;fill:rgb(0%,0%,0%);fill-opacity:1;" d="M 24.875 20.621094 C 24.890625 20.628906 24.890625 20.648438 24.882812 20.660156 C 24.875 20.675781 24.859375 20.675781 24.839844 20.667969 L 24.40625 20.445312 L 23.96875 20.667969 C 23.953125 20.675781 23.9375 20.675781 23.929688 20.660156 C 23.917969 20.648438 23.917969 20.636719 23.9375 20.621094 L 24.378906 20.394531 L 24.398438 20.386719 L 24.414062 20.394531 Z M 24.875 20.621094 "/>
<path style=" stroke:none;fill-rule:nonzero;fill:rgb(0%,0%,0%);fill-opacity:1;" d="M 24.957031 20.8125 C 24.972656 20.816406 24.980469 20.835938 24.964844 20.851562 C 24.957031 20.863281 24.933594 20.871094 24.914062 20.863281 L 24.40625 20.601562 L 23.894531 20.863281 C 23.878906 20.871094 23.855469 20.871094 23.84375 20.851562 C 23.835938 20.835938 23.835938 20.816406 23.855469 20.8125 L 24.378906 20.535156 L 24.398438 20.53125 L 24.414062 20.535156 Z M 24.957031 20.8125 "/>
<path style=" stroke:none;fill-rule:nonzero;fill:rgb(0%,0%,0%);fill-opacity:1;" d="M 25.0625 21.035156 C 25.089844 21.046875 25.097656 21.066406 25.082031 21.085938 C 25.0625 21.105469 25.039062 21.113281 25.015625 21.097656 L 24.414062 20.785156 L 23.8125 21.097656 C 23.789062 21.113281 23.761719 21.105469 23.746094 21.085938 C 23.730469 21.066406 23.738281 21.039062 23.761719 21.035156 L 24.390625 20.707031 L 24.414062 20.695312 L 24.4375 20.707031 Z M 25.0625 21.035156 "/>
<path style=" stroke:none;fill-rule:nonzero;fill:rgb(0%,0%,0%);fill-opacity:1;" d="M 25.1875 21.332031 C 25.210938 21.347656 25.21875 21.371094 25.203125 21.390625 C 25.1875 21.410156 25.15625 21.417969 25.128906 21.40625 L 24.40625 21.035156 L 23.679688 21.40625 C 23.65625 21.417969 23.625 21.410156 23.605469 21.390625 C 23.589844 21.371094 23.597656 21.347656 23.625 21.332031 L 24.378906 20.949219 L 24.40625 20.933594 L 24.429688 20.949219 Z M 25.1875 21.332031 "/>
<path style=" stroke:none;fill-rule:nonzero;fill:rgb(0%,0%,0%);fill-opacity:1;" d="M 25.328125 21.621094 C 25.359375 21.640625 25.375 21.671875 25.351562 21.707031 C 25.335938 21.738281 25.285156 21.746094 25.253906 21.726562 L 24.40625 21.308594 L 23.558594 21.726562 C 23.523438 21.746094 23.476562 21.730469 23.457031 21.707031 C 23.441406 21.671875 23.449219 21.640625 23.484375 21.621094 L 24.363281 21.191406 L 24.398438 21.171875 L 24.429688 21.191406 Z M 25.328125 21.621094 "/>
<path style=" stroke:none;fill-rule:nonzero;fill:rgb(0%,0%,0%);fill-opacity:1;" d="M 22.609375 30.480469 L 23.476562 22.175781 L 23.375 22.222656 C 23.328125 22.246094 23.261719 22.226562 23.238281 22.1875 C 23.210938 22.148438 23.226562 22.089844 23.277344 22.070312 L 24.355469 21.554688 L 24.40625 21.53125 L 24.453125 21.554688 L 25.53125 22.070312 C 25.582031 22.097656 25.597656 22.148438 25.574219 22.1875 C 25.550781 22.226562 25.484375 22.246094 25.433594 22.222656 L 25.335938 22.175781 L 26.199219 30.480469 L 26.199219 30.488281 L 26.191406 30.492188 C 26.027344 30.65625 25.886719 30.832031 25.761719 31.023438 C 25.640625 31.210938 25.523438 31.40625 25.433594 31.621094 L 25.425781 31.636719 L 23.375 31.636719 L 23.367188 31.621094 C 23.277344 31.414062 23.171875 31.210938 23.039062 31.023438 C 22.914062 30.832031 22.765625 30.65625 22.609375 30.492188 Z M 22.609375 30.480469 "/>
<path style=" stroke:none;fill-rule:nonzero;fill:rgb(0%,0%,0%);fill-opacity:1;" d="M 24.660156 20.160156 C 24.667969 20.160156 24.667969 20.164062 24.660156 20.171875 C 24.660156 20.179688 24.652344 20.179688 24.644531 20.171875 L 24.398438 20.039062 L 24.148438 20.171875 C 24.140625 20.171875 24.140625 20.171875 24.132812 20.171875 C 24.132812 20.164062 24.132812 20.164062 24.132812 20.160156 L 24.378906 20.027344 L 24.398438 20.027344 Z M 24.660156 20.160156 "/>
<path style=" stroke:none;fill-rule:nonzero;fill:rgb(0%,0%,0%);fill-opacity:1;" d="M 24.40625 19.519531 C 24.453125 19.519531 24.496094 19.539062 24.527344 19.578125 C 24.5625 19.609375 24.578125 19.65625 24.578125 19.707031 L 24.578125 20.054688 L 24.554688 20.039062 L 24.40625 19.949219 L 24.25 20.039062 L 24.222656 20.054688 L 24.222656 19.707031 C 24.222656 19.65625 24.242188 19.609375 24.273438 19.578125 C 24.316406 19.542969 24.355469 19.519531 24.40625 19.519531 Z M 24.40625 19.519531 "/>
<path style=" stroke:none;fill-rule:evenodd;fill:rgb(23.529412%,70.980392%,88.627451%);fill-opacity:1;" d="M 33.320312 31.996094 C 32.644531 32.84375 31.773438 33.582031 30.769531 34.1875 C 30.316406 34.078125 29.8125 34.039062 29.269531 34.085938 C 28.660156 34.164062 28.175781 34.183594 27.820312 34.148438 C 27.230469 34.097656 27.015625 33.808594 27.1875 33.289062 C 26.421875 32.953125 27.230469 32.394531 27.984375 32.125 C 28.4375 31.960938 28.824219 32 29 32 L 33.320312 32 Z M 18.148438 34.222656 C 17.121094 33.613281 16.238281 32.855469 15.546875 31.996094 L 19.121094 31.996094 C 18.46875 32.183594 18.175781 32.492188 18.222656 32.902344 C 18.25 33.191406 18.453125 33.429688 18.824219 33.628906 C 19.003906 33.347656 19.441406 33.300781 20.132812 33.476562 C 20.570312 33.632812 20.898438 33.691406 21.121094 33.652344 C 21.484375 33.6875 21.648438 33.804688 21.605469 34.007812 C 21.625 34.105469 21.484375 34.222656 21.1875 34.359375 C 20.4375 34.214844 19.433594 34.167969 18.148438 34.222656 Z M 18.148438 34.222656 "/>
<path style=" stroke:none;fill-rule:evenodd;fill:rgb(95.294118%,79.607843%,0%);fill-opacity:1;" d="M 10.75 32.132812 C 9.96875 32.496094 9.828125 33.292969 10.660156 33.445312 C 10.496094 33.269531 10.476562 33.019531 10.632812 32.824219 C 10.839844 32.5625 11.277344 32.476562 11.605469 32.640625 C 11.933594 32.804688 12.042969 33.152344 11.835938 33.410156 C 11.753906 33.515625 11.664062 33.5625 11.554688 33.640625 C 10.957031 34.097656 11.003906 34.816406 11.804688 34.875 C 11.613281 34.71875 11.554688 34.476562 11.671875 34.265625 C 11.828125 33.988281 12.246094 33.855469 12.601562 33.980469 C 12.957031 34.105469 13.121094 34.4375 12.964844 34.71875 C 12.890625 34.855469 12.726562 34.960938 12.625 35.089844 C 12.238281 35.59375 12.4375 36.199219 13.179688 36.167969 C 12.964844 36.03125 12.867188 35.800781 12.949219 35.578125 C 13.054688 35.277344 13.449219 35.109375 13.820312 35.195312 C 14.199219 35.277344 14.414062 35.59375 14.304688 35.886719 C 14.257812 36.011719 14.15625 36.09375 14.082031 36.207031 C 13.703125 36.761719 14 37.40625 14.765625 37.296875 C 14.535156 37.183594 14.394531 36.96875 14.4375 36.742188 C 14.496094 36.433594 14.847656 36.226562 15.234375 36.265625 C 15.621094 36.3125 15.886719 36.589844 15.835938 36.898438 C 15.8125 37.046875 15.6875 37.183594 15.632812 37.328125 C 15.433594 37.890625 15.828125 38.433594 16.527344 38.25 C 16.273438 38.164062 16.101562 37.960938 16.109375 37.734375 C 16.109375 37.425781 16.429688 37.179688 16.816406 37.179688 C 17.203125 37.179688 17.515625 37.433594 17.515625 37.742188 C 17.515625 37.863281 17.449219 37.960938 17.417969 38.078125 C 17.234375 38.6875 17.707031 39.253906 18.386719 39.019531 C 18.167969 38.921875 18.007812 38.738281 18.019531 38.523438 C 18.019531 38.21875 18.339844 37.96875 18.726562 37.96875 C 18.996094 37.96875 19.226562 38.09375 19.34375 38.261719 C 20.207031 39.542969 21.449219 40.417969 23.082031 40.886719 C 14.460938 40.34375 7.664062 34.683594 7.523438 27.738281 C 7.554688 27.90625 7.613281 28.058594 7.710938 28.195312 C 7.53125 28.4375 7.65625 28.730469 8.066406 29.082031 C 7.867188 29.378906 8.230469 29.734375 9.136719 30.171875 C 9.160156 30.375 9.308594 30.566406 9.589844 30.726562 C 9.175781 31.285156 9.226562 31.65625 9.738281 31.851562 C 9.648438 31.667969 9.679688 31.453125 9.851562 31.289062 C 10.101562 31.046875 10.542969 31.015625 10.847656 31.210938 C 11.152344 31.40625 11.195312 31.761719 10.949219 32 C 10.890625 32.058594 10.824219 32.097656 10.75 32.132812 Z M 10.75 32.132812 "/>
<path style=" stroke:none;fill-rule:evenodd;fill:rgb(95.294118%,79.607843%,0%);fill-opacity:1;" d="M 38.117188 32.132812 C 38.898438 32.496094 39.039062 33.292969 38.207031 33.445312 C 38.375 33.269531 38.390625 33.019531 38.234375 32.824219 C 38.027344 32.5625 37.589844 32.476562 37.261719 32.640625 C 36.933594 32.804688 36.824219 33.152344 37.03125 33.410156 C 37.113281 33.515625 37.203125 33.5625 37.3125 33.640625 C 37.914062 34.097656 37.863281 34.816406 37.066406 34.875 C 37.253906 34.71875 37.3125 34.476562 37.195312 34.265625 C 37.039062 33.988281 36.621094 33.855469 36.265625 33.980469 C 35.914062 34.105469 35.746094 34.4375 35.902344 34.71875 C 35.976562 34.855469 36.144531 34.960938 36.242188 35.089844 C 36.628906 35.59375 36.429688 36.199219 35.691406 36.167969 C 35.902344 36.03125 36.003906 35.800781 35.921875 35.578125 C 35.8125 35.277344 35.417969 35.109375 35.046875 35.195312 C 34.667969 35.277344 34.457031 35.59375 34.5625 35.886719 C 34.613281 36.011719 34.710938 36.09375 34.785156 36.207031 C 35.164062 36.761719 34.867188 37.40625 34.101562 37.296875 C 34.332031 37.183594 34.472656 36.96875 34.429688 36.742188 C 34.375 36.433594 34.019531 36.226562 33.632812 36.265625 C 33.246094 36.3125 32.980469 36.589844 33.03125 36.898438 C 33.054688 37.046875 33.179688 37.183594 33.238281 37.328125 C 33.433594 37.890625 33.039062 38.433594 32.339844 38.25 C 32.59375 38.164062 32.769531 37.960938 32.761719 37.734375 C 32.761719 37.425781 32.4375 37.179688 32.050781 37.179688 C 31.664062 37.179688 31.351562 37.433594 31.351562 37.742188 C 31.351562 37.863281 31.417969 37.960938 31.453125 38.078125 C 31.632812 38.6875 31.164062 39.253906 30.480469 39.019531 C 30.703125 38.921875 30.859375 38.738281 30.851562 38.523438 C 30.851562 38.21875 30.53125 37.96875 30.140625 37.96875 C 29.871094 37.96875 29.640625 38.09375 29.523438 38.261719 C 28.660156 39.542969 27.417969 40.417969 25.789062 40.886719 C 34.40625 40.34375 41.207031 34.683594 41.34375 27.738281 C 41.3125 27.90625 41.253906 28.058594 41.15625 28.195312 C 41.335938 28.4375 41.214844 28.730469 40.800781 29.082031 C 41 29.378906 40.636719 29.734375 39.730469 30.171875 C 39.707031 30.375 39.558594 30.566406 39.277344 30.726562 C 39.691406 31.285156 39.640625 31.65625 39.128906 31.851562 C 39.222656 31.667969 39.1875 31.453125 39.015625 31.289062 C 38.769531 31.046875 38.324219 31.015625 38.019531 31.210938 C 37.714844 31.40625 37.675781 31.761719 37.921875 32 C 37.976562 32.058594 38.042969 32.097656 38.117188 32.132812 Z M 38.117188 32.132812 "/>
<path style=" stroke:none;fill-rule:evenodd;fill:rgb(95.294118%,79.607843%,0%);fill-opacity:1;" d="M 29.640625 14.765625 C 29.617188 15.066406 29.550781 15.359375 29.449219 15.632812 L 35.730469 17.546875 C 37.269531 18.644531 38.554688 19.960938 39.507812 21.4375 L 29.046875 16.429688 C 28.890625 16.664062 28.703125 16.886719 28.496094 17.089844 L 39.839844 25.386719 C 39.773438 25.484375 39.699219 25.582031 39.632812 25.675781 C 39.058594 25.648438 38.152344 25.316406 37.460938 24.984375 C 37.285156 24.898438 37.128906 24.820312 37 24.742188 C 36.867188 24.664062 36.753906 24.589844 36.667969 24.53125 C 36.191406 24.171875 35.765625 23.957031 35.410156 23.878906 C 35.34375 23.859375 35.269531 23.855469 35.210938 23.847656 C 35.148438 23.839844 35.089844 23.839844 35.03125 23.839844 C 34.84375 23.839844 34.660156 23.867188 34.488281 23.90625 C 34.316406 23.945312 34.160156 24.011719 34.011719 24.089844 C 33.953125 24.113281 33.886719 24.140625 33.828125 24.160156 L 27.773438 17.683594 C 27.515625 17.855469 27.246094 17.996094 26.957031 18.128906 L 30.058594 23.253906 C 29.996094 23.257812 29.945312 23.273438 29.910156 23.285156 C 29.34375 23.390625 28.925781 23.625 28.660156 23.992188 C 28.613281 24.0625 28.5625 24.132812 28.519531 24.21875 C 28.480469 24.296875 28.445312 24.382812 28.421875 24.472656 C 28.382812 24.625 28.316406 24.769531 28.242188 24.898438 L 25.894531 18.488281 C 25.550781 18.566406 25.195312 18.617188 24.824219 18.636719 L 25.015625 20.359375 L 24.757812 19.882812 C 24.742188 19.648438 24.726562 19.355469 24.429688 19.363281 C 24.132812 19.355469 24.109375 19.65625 24.101562 19.882812 L 23.84375 20.359375 L 24.035156 18.636719 C 23.664062 18.617188 23.3125 18.566406 22.964844 18.488281 L 20.660156 24.800781 C 20.546875 24.789062 20.4375 24.808594 20.339844 24.859375 C 20.242188 24.910156 20.15625 24.996094 20.085938 25.113281 C 20.074219 25.132812 20.058594 25.144531 20.050781 25.164062 C 20.019531 25.207031 19.992188 25.238281 19.976562 25.25 C 19.96875 25.257812 19.960938 25.265625 19.953125 25.265625 C 19.953125 25.238281 19.953125 25.1875 19.960938 25.113281 C 19.960938 25.09375 19.960938 25.074219 19.96875 25.054688 C 19.96875 25.035156 19.96875 25.015625 19.976562 24.988281 L 19.976562 24.984375 C 19.984375 24.886719 19.976562 24.8125 19.960938 24.753906 C 19.960938 24.742188 19.953125 24.734375 19.953125 24.722656 C 19.945312 24.707031 19.945312 24.703125 19.9375 24.695312 C 19.878906 24.628906 19.828125 24.578125 19.769531 24.53125 C 19.761719 24.527344 19.753906 24.511719 19.738281 24.507812 C 19.730469 24.5 19.722656 24.492188 19.714844 24.488281 C 19.664062 24.414062 19.582031 24.371094 19.476562 24.34375 C 19.367188 24.316406 19.234375 24.3125 19.078125 24.332031 L 18.109375 24.402344 L 21.902344 18.140625 C 21.613281 18.015625 21.34375 17.867188 21.089844 17.695312 L 14.5625 24.667969 L 11.761719 24.886719 C 11.582031 24.90625 11.457031 24.949219 11.382812 25.027344 C 11.367188 25.042969 11.359375 25.0625 11.34375 25.082031 C 11.335938 25.101562 11.324219 25.121094 11.316406 25.140625 C 11.269531 25.230469 11.21875 25.296875 11.160156 25.335938 C 11.152344 25.34375 11.144531 25.347656 11.128906 25.355469 C 11.121094 25.363281 11.113281 25.363281 11.105469 25.363281 C 11.023438 25.355469 10.964844 25.375 10.90625 25.421875 C 10.898438 25.425781 10.890625 25.441406 10.882812 25.445312 C 10.875 25.460938 10.863281 25.464844 10.855469 25.480469 C 10.78125 25.597656 10.707031 25.675781 10.644531 25.722656 C 10.625 25.726562 10.617188 25.734375 10.601562 25.742188 C 10.59375 25.746094 10.578125 25.746094 10.570312 25.753906 C 10.332031 25.753906 10.183594 25.78125 10.140625 25.839844 C 10.125 25.851562 10.101562 25.871094 10.058594 25.882812 C 10.050781 25.890625 10.042969 25.890625 10.027344 25.890625 C 10.015625 25.890625 10.007812 25.898438 9.992188 25.898438 C 9.84375 25.902344 9.722656 25.921875 9.628906 25.957031 C 9.589844 25.976562 9.546875 25.996094 9.515625 26.015625 C 9.324219 25.824219 9.152344 25.621094 9.003906 25.394531 L 20.332031 17.089844 C 20.125 16.886719 19.9375 16.664062 19.78125 16.429688 L 9.390625 21.40625 C 10.347656 19.929688 11.640625 18.617188 13.1875 17.519531 L 19.375 15.632812 C 19.277344 15.359375 19.210938 15.074219 19.1875 14.777344 C 20.839844 14.347656 22.601562 14.121094 24.4375 14.121094 C 26.25 14.113281 27.992188 14.339844 29.640625 14.765625 Z M 29.640625 14.765625 "/>
<path style=" stroke:none;fill-rule:nonzero;fill:rgb(98.039216%,83.529412%,0%);fill-opacity:1;" d="M 24.429688 21.746094 L 24.429688 31.601562 L 25.410156 31.601562 C 25.5 31.394531 25.605469 31.199219 25.738281 31.007812 C 25.863281 30.820312 26.011719 30.644531 26.167969 30.480469 L 25.300781 22.167969 L 25.300781 22.15625 Z M 24.980469 24.734375 L 25.0625 24.734375 L 25.082031 25.597656 L 24.996094 25.597656 Z M 24.980469 24.734375 "/>
<path style=" stroke:none;fill-rule:nonzero;fill:rgb(98.039216%,83.529412%,0%);fill-opacity:1;" d="M 23.65625 22.089844 L 23.515625 22.175781 L 22.652344 30.480469 C 22.808594 30.644531 22.957031 30.820312 23.082031 31.007812 C 23.203125 31.191406 23.3125 31.394531 23.410156 31.601562 L 24.390625 31.601562 L 24.390625 21.746094 Z M 23.699219 27.234375 L 23.828125 27.234375 L 23.796875 28.320312 L 23.664062 28.320312 Z M 23.953125 22.875 L 24.027344 22.875 L 24.003906 23.59375 L 23.929688 23.59375 Z M 23.953125 22.875 "/>
<path style=" stroke:none;fill-rule:nonzero;fill:rgb(88.627451%,91.764706%,92.156863%);fill-opacity:1;" d="M 24.40625 19.542969 C 24.363281 19.542969 24.332031 19.5625 24.304688 19.589844 C 24.28125 19.621094 24.265625 19.664062 24.265625 19.707031 L 24.265625 20 L 24.398438 19.921875 L 24.40625 19.917969 L 24.414062 19.921875 L 24.546875 20 L 24.546875 19.707031 C 24.546875 19.664062 24.527344 19.621094 24.503906 19.589844 C 24.480469 19.5625 24.445312 19.542969 24.40625 19.542969 Z M 24.40625 19.542969 "/>
<path style=" stroke:none;fill-rule:evenodd;fill:rgb(34.901961%,51.764706%,24.705882%);fill-opacity:1;" d="M 36.824219 31.578125 C 35.1875 34.820312 31.582031 37.277344 27.179688 38 C 27.097656 37.78125 26.964844 37.570312 26.808594 37.386719 C 30.917969 36.761719 34.308594 34.546875 35.921875 31.578125 Z M 34.917969 32.039062 C 33.757812 33.777344 31.9375 35.1875 29.714844 36.0625 C 29.847656 35.972656 29.929688 35.839844 29.976562 35.664062 C 30.09375 35.449219 29.945312 35.421875 29.804688 35.316406 C 31.558594 34.546875 33.015625 33.40625 34.019531 32.035156 L 34.917969 32.035156 Z M 29.292969 36.226562 C 29.0625 36.3125 28.824219 36.390625 28.585938 36.453125 C 28.613281 36.441406 28.644531 36.429688 28.667969 36.414062 C 28.851562 36.3125 29.425781 36.054688 29.21875 35.789062 C 29.21875 35.789062 29.128906 35.683594 29.121094 35.675781 C 29.246094 35.664062 29.375 35.605469 29.34375 35.769531 C 29.320312 35.933594 29.394531 36.089844 29.292969 36.226562 Z M 28.453125 36.5 C 27.761719 36.695312 27.039062 36.847656 26.296875 36.9375 C 25.902344 36.667969 25.417969 36.488281 24.875 36.421875 C 25.054688 36.414062 25.246094 36.410156 25.425781 36.394531 C 25.53125 36.414062 25.640625 36.410156 25.746094 36.375 L 25.746094 36.371094 C 25.855469 36.355469 25.960938 36.351562 26.066406 36.335938 L 26.085938 36.335938 L 26.085938 36.332031 C 26.570312 36.269531 27.046875 36.1875 27.515625 36.082031 C 27.566406 36.191406 27.671875 36.289062 27.835938 36.355469 C 28.019531 36.472656 28.242188 36.539062 28.453125 36.5 Z M 22.585938 36.9375 C 21.828125 36.847656 21.089844 36.6875 20.378906 36.488281 C 20.59375 36.53125 20.808594 36.488281 20.996094 36.375 C 21.179688 36.304688 21.292969 36.191406 21.328125 36.074219 C 21.796875 36.1875 22.273438 36.265625 22.765625 36.324219 C 22.777344 36.332031 22.792969 36.332031 22.808594 36.332031 C 22.898438 36.34375 22.996094 36.351562 23.089844 36.363281 C 23.097656 36.371094 23.097656 36.375 23.105469 36.382812 C 23.195312 36.414062 23.292969 36.414062 23.410156 36.394531 C 23.597656 36.410156 23.796875 36.421875 23.992188 36.429688 C 23.476562 36.488281 22.980469 36.667969 22.585938 36.9375 Z M 20.296875 36.46875 C 20.042969 36.390625 19.789062 36.3125 19.539062 36.21875 C 19.417969 36.042969 19.550781 35.886719 19.457031 35.730469 C 19.664062 35.671875 19.484375 35.675781 19.707031 35.695312 C 19.558594 35.847656 19.464844 35.992188 19.730469 36.140625 C 19.863281 36.25 20.035156 36.332031 20.167969 36.410156 C 20.214844 36.429688 20.257812 36.449219 20.296875 36.46875 Z M 19.078125 36.042969 C 16.890625 35.160156 15.085938 33.765625 13.945312 32.039062 L 14.839844 32.039062 C 15.835938 33.40625 17.292969 34.542969 19.03125 35.3125 C 18.988281 35.382812 18.792969 35.382812 18.816406 35.578125 C 18.839844 35.78125 18.929688 35.933594 19.078125 36.042969 Z M 20.386719 35.9375 C 20.296875 36.140625 20.101562 36.109375 20.191406 36.335938 C 20.332031 36.304688 20.472656 36.160156 20.601562 36.152344 C 20.585938 36.089844 20.59375 36.023438 20.617188 35.964844 C 20.535156 35.976562 20.453125 35.964844 20.386719 35.9375 Z M 28.472656 35.953125 C 28.398438 35.976562 28.296875 35.957031 28.214844 35.945312 C 28.242188 36.003906 28.25 36.074219 28.234375 36.132812 C 28.398438 36.140625 28.675781 36.511719 28.710938 36.226562 C 28.710938 36.171875 28.503906 36.035156 28.472656 35.953125 Z M 21.707031 38.007812 C 17.292969 37.285156 13.679688 34.828125 12.042969 31.578125 L 12.949219 31.578125 C 14.570312 34.546875 17.96875 36.769531 22.074219 37.386719 C 21.917969 37.578125 21.789062 37.785156 21.707031 38.007812 Z M 21.707031 38.007812 "/>
<path style=" stroke:none;fill-rule:nonzero;fill:rgb(100%,100%,100%);fill-opacity:1;" d="M 24.445312 36.492188 C 23.6875 36.492188 23.007812 36.734375 22.503906 37.132812 C 22.011719 37.523438 21.699219 38.074219 21.699219 38.675781 C 21.699219 39.273438 22 39.816406 22.503906 40.214844 C 22.996094 40.605469 23.6875 40.855469 24.445312 40.855469 C 25.203125 40.855469 25.886719 40.613281 26.390625 40.214844 C 26.882812 39.824219 27.195312 39.273438 27.195312 38.675781 C 27.195312 38.074219 26.890625 37.53125 26.390625 37.132812 C 25.886719 36.734375 25.203125 36.492188 24.445312 36.492188 Z M 24.445312 36.492188 "/>
<path style=" stroke:none;fill-rule:evenodd;fill:rgb(23.529412%,70.980392%,88.627451%);fill-opacity:1;" d="M 23.871094 36.25 C 23.9375 36.210938 24.003906 36.167969 24.066406 36.121094 L 24.066406 36.371094 C 23.9375 36.382812 23.796875 36.371094 23.65625 36.363281 C 23.738281 36.332031 23.804688 36.289062 23.871094 36.25 Z M 26.890625 36.160156 C 26.941406 35.945312 26.757812 35.8125 26.621094 35.65625 C 26.785156 35.675781 26.941406 35.730469 27.097656 35.769531 C 27.046875 35.664062 27 35.566406 26.925781 35.46875 C 27.054688 35.496094 27.1875 35.515625 27.320312 35.535156 C 27.285156 35.402344 27.253906 35.265625 27.195312 35.140625 C 27.515625 35.167969 27.902344 35.257812 28.085938 35.496094 C 28.058594 35.535156 28.042969 35.574219 28.027344 35.613281 C 27.664062 35.574219 27.394531 35.753906 27.433594 36.050781 L 27.433594 36.054688 C 27.253906 36.089844 27.070312 36.128906 26.890625 36.160156 Z M 26.734375 36.1875 C 26.546875 36.21875 26.347656 36.246094 26.160156 36.269531 C 26.167969 36.171875 26.140625 36.074219 26.109375 35.984375 C 26.308594 36.070312 26.519531 36.132812 26.734375 36.1875 Z M 24.957031 36.25 C 25.023438 36.289062 25.097656 36.332031 25.171875 36.363281 C 25.039062 36.371094 24.898438 36.382812 24.757812 36.371094 L 24.757812 36.121094 C 24.824219 36.167969 24.890625 36.210938 24.957031 36.25 Z M 22.101562 36.1875 C 22.316406 36.132812 22.527344 36.070312 22.726562 35.984375 C 22.691406 36.074219 22.660156 36.171875 22.675781 36.269531 C 22.488281 36.246094 22.289062 36.21875 22.101562 36.1875 Z M 21.945312 36.160156 C 21.761719 36.128906 21.582031 36.089844 21.402344 36.050781 L 21.402344 36.042969 C 21.433594 35.753906 21.164062 35.574219 20.808594 35.605469 C 20.792969 35.566406 20.777344 35.527344 20.75 35.488281 C 20.933594 35.253906 21.308594 35.167969 21.640625 35.136719 C 21.582031 35.265625 21.550781 35.398438 21.515625 35.527344 C 21.648438 35.507812 21.78125 35.488281 21.910156 35.460938 C 21.835938 35.554688 21.789062 35.65625 21.738281 35.761719 C 21.894531 35.722656 22.050781 35.671875 22.214844 35.652344 C 22.066406 35.8125 21.894531 35.945312 21.945312 36.160156 Z M 21.945312 36.160156 "/>
<path style=" stroke:none;fill-rule:evenodd;fill:rgb(88.627451%,0%,10.196078%);fill-opacity:1;" d="M 25.03125 37.65625 C 25.566406 37.839844 25.945312 38.257812 25.945312 38.753906 C 25.945312 38.960938 25.878906 39.164062 25.753906 39.332031 C 25.746094 39.339844 25.746094 39.347656 25.738281 39.351562 C 25.699219 39.410156 25.699219 39.476562 25.714844 39.542969 C 25.738281 39.609375 25.789062 39.667969 25.871094 39.699219 C 25.984375 39.75 26.117188 39.746094 26.214844 39.6875 C 26.234375 39.671875 26.257812 39.660156 26.273438 39.648438 C 26.289062 39.632812 26.308594 39.613281 26.316406 39.601562 C 26.355469 39.550781 26.363281 39.488281 26.355469 39.429688 C 26.355469 39.417969 26.347656 39.410156 26.347656 39.398438 C 26.339844 39.386719 26.339844 39.371094 26.332031 39.367188 C 26.289062 39.289062 26.332031 39.191406 26.4375 39.15625 C 26.539062 39.125 26.660156 39.15625 26.703125 39.242188 C 26.71875 39.269531 26.726562 39.292969 26.734375 39.3125 C 26.742188 39.339844 26.75 39.359375 26.75 39.386719 C 26.777344 39.515625 26.742188 39.648438 26.660156 39.765625 C 26.636719 39.804688 26.601562 39.835938 26.5625 39.867188 C 26.527344 39.902344 26.488281 39.925781 26.4375 39.953125 C 26.214844 40.078125 25.910156 40.097656 25.65625 39.980469 C 25.507812 39.914062 25.402344 39.816406 25.34375 39.699219 C 25.089844 39.847656 24.777344 39.941406 24.4375 39.941406 C 23.886719 39.941406 23.410156 39.707031 23.144531 39.359375 C 23.136719 39.351562 23.136719 39.347656 23.128906 39.339844 C 23.089844 39.28125 23.015625 39.25 22.941406 39.230469 C 22.859375 39.210938 22.765625 39.214844 22.691406 39.253906 C 22.578125 39.308594 22.519531 39.40625 22.527344 39.503906 C 22.527344 39.523438 22.535156 39.542969 22.546875 39.5625 C 22.554688 39.582031 22.5625 39.59375 22.570312 39.613281 C 22.601562 39.667969 22.667969 39.707031 22.734375 39.726562 C 22.75 39.730469 22.757812 39.730469 22.777344 39.738281 C 22.792969 39.738281 22.800781 39.746094 22.816406 39.746094 C 22.933594 39.757812 23.007812 39.835938 22.996094 39.921875 C 22.988281 40.011719 22.882812 40.070312 22.777344 40.066406 C 22.742188 40.066406 22.710938 40.058594 22.675781 40.050781 C 22.644531 40.046875 22.609375 40.039062 22.585938 40.027344 C 22.4375 39.980469 22.304688 39.886719 22.222656 39.777344 C 22.199219 39.738281 22.175781 39.699219 22.160156 39.652344 C 22.140625 39.613281 22.132812 39.570312 22.125 39.527344 C 22.101562 39.3125 22.242188 39.097656 22.488281 38.980469 C 22.636719 38.914062 22.792969 38.890625 22.949219 38.910156 C 22.941406 38.863281 22.941406 38.8125 22.941406 38.765625 C 22.941406 38.117188 23.597656 37.589844 24.414062 37.578125 C 24.421875 37.578125 24.421875 37.578125 24.4375 37.578125 C 24.527344 37.578125 24.609375 37.550781 24.667969 37.5 C 24.726562 37.453125 24.765625 37.386719 24.765625 37.316406 C 24.765625 37.246094 24.734375 37.179688 24.667969 37.132812 C 24.609375 37.085938 24.527344 37.054688 24.4375 37.054688 C 24.363281 37.054688 24.289062 37.074219 24.234375 37.113281 C 24.222656 37.121094 24.207031 37.125 24.199219 37.140625 C 24.191406 37.144531 24.183594 37.160156 24.175781 37.164062 L 24.167969 37.171875 C 24.101562 37.246094 23.96875 37.25 23.878906 37.199219 C 23.796875 37.144531 23.78125 37.046875 23.84375 36.976562 C 23.863281 36.957031 23.886719 36.9375 23.910156 36.917969 C 23.9375 36.898438 23.960938 36.886719 23.984375 36.867188 C 24.117188 36.789062 24.273438 36.742188 24.4375 36.742188 C 24.644531 36.742188 24.824219 36.808594 24.957031 36.910156 C 25.089844 37.015625 25.171875 37.160156 25.171875 37.324219 C 25.179688 37.433594 25.121094 37.558594 25.03125 37.65625 Z M 24.445312 38.132812 C 24.875 38.132812 25.21875 38.40625 25.21875 38.746094 C 25.21875 39.085938 24.875 39.359375 24.445312 39.359375 C 24.019531 39.359375 23.671875 39.085938 23.671875 38.746094 C 23.671875 38.40625 24.019531 38.132812 24.445312 38.132812 Z M 24.445312 38.132812 "/>
<path style=" stroke:none;fill-rule:evenodd;fill:rgb(23.529412%,70.980392%,88.627451%);fill-opacity:1;" d="M 29.984375 14.855469 C 31.773438 15.351562 33.425781 16.078125 34.882812 16.984375 L 29.871094 15.457031 C 29.886719 15.40625 29.894531 15.351562 29.910156 15.300781 C 29.945312 15.152344 29.96875 15 29.984375 14.855469 Z M 8.265625 23.535156 C 8.496094 22.945312 8.773438 22.425781 9.09375 21.875 L 19.648438 16.820312 C 19.714844 16.902344 19.78125 16.980469 19.84375 17.058594 L 8.824219 25.121094 C 8.707031 24.917969 8.609375 24.695312 8.527344 24.46875 C 8.484375 24.34375 8.445312 24.21875 8.402344 24.089844 C 8.363281 23.957031 8.328125 23.820312 8.304688 23.683594 Z M 15.023438 24.617188 L 21.136719 18.082031 C 21.226562 18.132812 21.320312 18.1875 21.417969 18.230469 L 17.671875 24.414062 Z M 20.996094 24.808594 L 23.1875 18.820312 C 23.320312 18.839844 23.417969 18.859375 23.550781 18.871094 L 23.210938 21.484375 L 22.777344 22.292969 L 23.089844 22.457031 L 22.488281 27.085938 C 22.167969 26.921875 21.902344 26.679688 21.828125 26.414062 C 21.8125 26.355469 21.804688 26.296875 21.796875 26.230469 C 21.789062 26.164062 21.789062 26.097656 21.796875 26.027344 C 21.796875 25.820312 21.769531 25.628906 21.714844 25.472656 C 21.707031 25.441406 21.6875 25.414062 21.679688 25.382812 C 21.664062 25.347656 21.65625 25.324219 21.640625 25.296875 L 21.632812 25.289062 C 21.515625 25.066406 21.394531 24.925781 21.246094 24.859375 C 21.210938 24.847656 21.1875 24.832031 21.152344 24.828125 C 21.121094 24.820312 21.089844 24.8125 21.054688 24.8125 L 21.046875 24.8125 C 21.039062 24.808594 21.023438 24.808594 20.996094 24.808594 Z M 26.378906 26.375 L 25.753906 22.4375 L 26.035156 22.285156 L 25.597656 21.476562 L 25.1875 18.871094 C 25.335938 18.851562 25.476562 18.832031 25.625 18.808594 L 27.960938 25.207031 C 27.835938 25.335938 27.691406 25.453125 27.523438 25.558594 C 27.210938 25.714844 26.933594 25.890625 26.695312 26.085938 C 26.644531 26.125 26.601562 26.164062 26.5625 26.203125 C 26.511719 26.25 26.421875 26.335938 26.378906 26.375 Z M 30.429688 23.226562 L 27.402344 18.230469 C 27.5 18.1875 27.589844 18.132812 27.679688 18.082031 L 33.410156 24.199219 C 33.386719 24.199219 33.367188 24.191406 33.34375 24.1875 C 33.3125 24.179688 33.269531 24.167969 33.238281 24.152344 C 33.203125 24.140625 33.171875 24.121094 33.136719 24.101562 L 33.121094 24.09375 C 32.726562 23.867188 32.289062 23.460938 31.871094 23.316406 C 31.820312 23.304688 31.78125 23.292969 31.730469 23.277344 C 31.683594 23.273438 31.640625 23.265625 31.597656 23.257812 C 31.425781 23.253906 31.269531 23.246094 31.136719 23.238281 C 31.007812 23.234375 30.898438 23.234375 30.808594 23.226562 C 30.667969 23.234375 30.539062 23.226562 30.429688 23.226562 Z M 39.789062 21.90625 C 40.085938 22.332031 40.308594 22.808594 40.546875 23.539062 L 40.515625 23.675781 C 40.480469 23.816406 40.449219 23.953125 40.414062 24.082031 C 40.375 24.210938 40.332031 24.335938 40.292969 24.460938 C 40.210938 24.695312 40.101562 24.910156 39.996094 25.113281 L 28.972656 17.058594 C 29.039062 16.980469 29.105469 16.902344 29.171875 16.820312 Z M 14.027344 16.953125 C 15.457031 16.066406 17.078125 15.351562 18.824219 14.871094 C 18.847656 15.066406 18.882812 15.261719 18.941406 15.457031 Z M 14.027344 16.953125 "/>
</g>
</svg>
